<?xml version="1.0" encoding="utf-8"?>
<!-- Generator: Adobe Illustrator 24.0.0, SVG Export Plug-In . SVG Version: 6.00 Build 0)  -->
<svg version="1.1" id="Layer_1" xmlns="http://www.w3.org/2000/svg" xmlns:xlink="http://www.w3.org/1999/xlink" x="0px" y="0px"
	 viewBox="0 0 1000 1000" style="enable-background:new 0 0 1000 1000;" xml:space="preserve">
<style type="text/css">
	.st0{clip-path:url(#SVGID_2_);}
	.st1{fill:url(#SVGID_3_);}
	.st2{fill:url(#SVGID_4_);}
	.st3{fill:url(#SVGID_5_);}
</style>
<g>
	<defs>
		<rect id="SVGID_1_" width="1000" height="1000"/>
	</defs>
	<clipPath id="SVGID_2_">
		<use xlink:href="#SVGID_1_"  style="overflow:visible;"/>
	</clipPath>
	<g class="st0">
		
			<image style="overflow:visible;enable-background:new    ;" width="392" height="275" xlink:href="43C909C7.png"  transform="matrix(3.9913 0 0 3.9913 -292.2894 -8)">
		</image>
	</g>
</g>
<g>
	
		<linearGradient id="SVGID_3_" gradientUnits="userSpaceOnUse" x1="335.16" y1="341.745" x2="564.37" y2="341.745" gradientTransform="matrix(1 0 0 -1 0 1000)">
		<stop  offset="0" style="stop-color:#662D91"/>
		<stop  offset="0.9" style="stop-color:#ED1C24"/>
	</linearGradient>
	<path class="st1" d="M449.8,727.2V589.3c-40.4,0-75.5,22.4-93.7,55.3c-2.6,4.7-4.9,9.7-6.8,14.8v67.7L449.8,727.2L449.8,727.2z"/>
	
		<linearGradient id="SVGID_4_" gradientUnits="userSpaceOnUse" x1="605.3014" y1="560.0703" x2="321.9314" y2="518.6003" gradientTransform="matrix(1 0 0 -1 0 1000)">
		<stop  offset="0" style="stop-color:#662D91"/>
		<stop  offset="0.9" style="stop-color:#ED1C24"/>
	</linearGradient>
	<path class="st2" d="M356.1,644.7c18.2-33,53.3-55.3,93.7-55.3V397.2h95.5c24.6,0,44.5,19.9,44.5,44.5s-19.9,44.5-44.5,44.5
		c50.6,0,92-39.3,95.3-89c0.1-2.1,0.2-4.3,0.2-6.4c0-51.9-41.4-94.2-93-95.5c-0.8,0-1.6,0-2.5,0s-1.6,0-2.5,0H349.3v364.2"/>
	
		<linearGradient id="SVGID_5_" gradientUnits="userSpaceOnUse" x1="-5790.3101" y1="522.65" x2="695.0698" y2="522.65" gradientTransform="matrix(1 0 0 -1 0 1000)">
		<stop  offset="0" style="stop-color:#662D91"/>
		<stop  offset="0.9" style="stop-color:#ED1C24"/>
	</linearGradient>
	<path class="st3" d="M685.2,397.2c-18.8-58.4-73.1-100.9-137.5-101.9c51.6,1.3,93,43.5,93,95.5c0,2.2-0.1,4.3-0.2,6.4
		c-3.3,49.7-44.7,89.1-95.3,89.1h-95.5c-14.9,0-29,3-41.9,8.5c-27.1,11.5-48.4,33.9-58.5,61.7v103.1c1.9-5.1,4.1-10.1,6.8-14.8
		c18.2-33,53.3-55.3,93.7-55.3h95.5c3.8,0,7.6-0.1,11.3-0.4c60.9-4.6,111.4-46.4,129-102.6c4.3-13.9,6.7-28.6,6.7-44
		S689.8,411.4,685.2,397.2L685.2,397.2z"/>
</g>
</svg>
