<?xml version="1.0" encoding="utf-8"?>
<!-- Generator: Adobe Illustrator 24.0.0, SVG Export Plug-In . SVG Version: 6.00 Build 0)  -->
<svg version="1.1" id="Layer_1" xmlns="http://www.w3.org/2000/svg" xmlns:xlink="http://www.w3.org/1999/xlink" x="0px" y="0px"
	 viewBox="0 0 1000 1000" style="enable-background:new 0 0 1000 1000;" xml:space="preserve">
<style type="text/css">
	.st0{clip-path:url(#SVGID_2_);}
	.st1{fill:url(#SVGID_3_);}
	.st2{opacity:0.75;fill:#FFFFFF;enable-background:new    ;}
</style>
<g>
	<g id="Layer_1_1_">
		<g>
			<defs>
				<rect id="SVGID_1_" width="1000" height="1000"/>
			</defs>
			<clipPath id="SVGID_2_">
				<use xlink:href="#SVGID_1_"  style="overflow:visible;"/>
			</clipPath>
			<g class="st0">
				
					<image style="overflow:visible;enable-background:new    ;" width="445" height="266" xlink:href="E34BED78.png"  transform="matrix(6.5092 0 0 6.5092 -1279.2394 -389)">
				</image>
			</g>
		</g>
		<g>
			
				<image style="overflow:visible;opacity:0.5;enable-background:new    ;" width="426" height="540" xlink:href="E34BED79.png"  transform="matrix(1 0 0 1 287 230)">
			</image>
			<g>
				
					<linearGradient id="SVGID_3_" gradientUnits="userSpaceOnUse" x1="371.3343" y1="689.1417" x2="570.1508" y2="344.7876" gradientTransform="matrix(1 0 0 -1 0 1000)">
					<stop  offset="0" style="stop-color:#77B7E5"/>
					<stop  offset="9.000000e-02" style="stop-color:#6DB1E1"/>
					<stop  offset="0.23" style="stop-color:#54A3D9"/>
					<stop  offset="0.41" style="stop-color:#2B8DCC"/>
					<stop  offset="0.57" style="stop-color:#0076BF"/>
					<stop  offset="1" style="stop-color:#004DA1"/>
				</linearGradient>
				<path class="st1" d="M678.4,442.6c0-47.6-18.5-92.4-52.2-126.1s-78.5-52.2-126.1-52.2s-92.4,18.5-126.1,52.2
					c-33.4,33.4-51.9,77.7-52.2,124.8h0v208.4c0,21.4,7.9,41,20.8,56.1c15.8,18.3,39.2,30,65.2,30s49.4-11.6,65.2-30
					c13-15.1,20.8-34.7,20.8-56.1v-28.8c2.1,0.1,4.2,0.1,6.3,0.1c47.6,0,92.4-18.5,126.1-52.2c32.9-32.9,51.4-76.4,52.2-122.8
					c0-1,0-2.1,0-3.1C678.3,442.8,678.3,442.7,678.4,442.6C678.3,442.7,678.3,442.6,678.4,442.6L678.4,442.6z M500,321.6
					c10,0,19.8,1.2,29.2,3.6c-38.2,9.2-69.4,36.5-84,72.3c-0.1,0.3-0.2,0.5-0.3,0.8c-5.3,13.4-8.3,27.9-8.5,43.1h0v104.3
					c-19-11.8-34.5-28.7-44.6-48.7c-0.1-0.3-0.3-0.6-0.5-0.9c-7.9-16.1-12.4-34.2-12.4-53.3c0-20.3,5-39.5,13.9-56.4
					c0.2-0.3,0.3-0.6,0.5-0.9C413.8,347.4,453.9,321.6,500,321.6L500,321.6z M407.7,678.4c-15.8,0-28.7-12.9-28.7-28.7v-76.1
					c16.9,15.7,36.4,27.7,57.4,35.7v40.3C436.4,665.5,423.5,678.4,407.7,678.4L407.7,678.4z M500,563.7c-2.1,0-4.2-0.1-6.3-0.2
					V442.8c0-35.1,28.6-63.7,63.7-63.7s63.6,28.5,63.7,63.6c0,0.1,0,0.2,0,0.2c-0.2,56.8-39.7,104.5-92.6,117.3
					C519.3,562.5,509.8,563.7,500,563.7L500,563.7z"/>
				<g>
					<path class="st2" d="M678.4,442.6c0-47.6-18.5-92.4-52.2-126.1s-78.5-52.2-126.1-52.2s-92.4,18.5-126.1,52.2
						c-33.4,33.4-51.9,77.7-52.2,124.8h0v208.4c0,21.4,7.9,41,20.8,56.1c15.8,18.3,39.2,30,65.2,30s49.4-11.6,65.2-30
						c13-15.1,20.8-34.7,20.8-56.1v-28.8c2.1,0.1,4.2,0.1,6.3,0.1c47.6,0,92.4-18.5,126.1-52.2c32.9-32.9,51.4-76.4,52.2-122.8
						c0-1,0-2.1,0-3.1C678.3,442.8,678.3,442.7,678.4,442.6C678.3,442.7,678.3,442.6,678.4,442.6L678.4,442.6z M500,321.6
						c10,0,19.8,1.2,29.2,3.6c-38.2,9.2-69.4,36.5-84,72.3c-0.1,0.3-0.2,0.5-0.3,0.8c-5.3,13.4-8.3,27.9-8.5,43.1h0v104.3
						c-19-11.8-34.5-28.7-44.6-48.7c-0.1-0.3-0.3-0.6-0.5-0.9c-7.9-16.1-12.4-34.2-12.4-53.3c0-20.3,5-39.5,13.9-56.4
						c0.2-0.3,0.3-0.6,0.5-0.9C413.8,347.4,453.9,321.6,500,321.6L500,321.6z M407.7,678.4c-15.8,0-28.7-12.9-28.7-28.7v-76.1
						c16.9,15.7,36.4,27.7,57.4,35.7v40.3C436.4,665.5,423.5,678.4,407.7,678.4L407.7,678.4z M500,563.7c-2.1,0-4.2-0.1-6.3-0.2
						V442.8c0-35.1,28.6-63.7,63.7-63.7s63.6,28.5,63.7,63.6c0,0.1,0,0.2,0,0.2c-0.2,56.8-39.7,104.5-92.6,117.3
						C519.3,562.5,509.8,563.7,500,563.7L500,563.7z"/>
				</g>
			</g>
		</g>
	</g>
</g>
</svg>
