<?xml version="1.0" encoding="utf-8"?>
<!-- Generator: Adobe Illustrator 24.0.0, SVG Export Plug-In . SVG Version: 6.00 Build 0)  -->
<svg version="1.1" id="Layer_1" xmlns="http://www.w3.org/2000/svg" xmlns:xlink="http://www.w3.org/1999/xlink" x="0px" y="0px"
	 viewBox="0 0 1000 1000" style="enable-background:new 0 0 1000 1000;" xml:space="preserve">
<style type="text/css">
	.st0{clip-path:url(#SVGID_2_);}
	.st1{fill:#395031;}
	.st2{fill:#FFFFF8;}
	.st3{fill:#999682;}
	.st4{fill:#BF8245;}
	.st5{opacity:0.5;fill:#AA573F;enable-background:new    ;}
	.st6{fill:#718258;}
	.st7{fill:#9D9483;}
	.st8{fill:#FFFFFA;}
	.st9{fill:#DAAD7E;}
	.st10{fill:#C4B19F;}
</style>
<g>
	<defs>
		<rect id="SVGID_1_" width="1000" height="1000"/>
	</defs>
	<clipPath id="SVGID_2_">
		<use xlink:href="#SVGID_1_"  style="overflow:visible;"/>
	</clipPath>
	<g class="st0">
		
			<image style="overflow:visible;enable-background:new    ;" width="674" height="678" xlink:href="A1816458.png"  transform="matrix(1.5614 0 0 1.5614 -3.3222 -32.36)">
		</image>
	</g>
</g>
<g>
	
		<ellipse transform="matrix(0.9239 -0.3827 0.3827 0.9239 -123.7779 158.4482)" class="st1" cx="336.4" cy="390.4" rx="35.9" ry="35.9"/>
	<circle class="st2" cx="499.5" cy="390.4" r="35.9"/>
	<circle class="st3" cx="662.6" cy="390.3" r="35.9"/>
	<path class="st1" d="M341.6,585.3c14.7-3.9,32.6-61,58-99.5c-16.7-21-37.7-35.9-63.3-34c-32.9,2.4-40.7,38.8-40,64.8
		c0.5,17.4,4,35.5,10.5,52.6C318.3,579.5,331.6,588,341.6,585.3z"/>
	<path class="st4" d="M445.6,451c-17.8,0-32.9,15-46.1,34.9c35,43.9,51.2,114.6,51.2,114.6c0,0,0,0.1,0,0.1
		c1-3,21.5-61.3,49.2-104.2C483.6,471,464.7,451,445.6,451z"/>
	<path class="st5" d="M456,611.4c-2.4-4.3-4-7.8-4.7-9.5C452.4,604.9,454,608.1,456,611.4z"/>
	<path class="st5" d="M341.6,585.3c-10,2.7-23.3-5.9-34.8-16.1c6.8,17.8,16.7,34.3,29.8,47.6c14.4,14.6,37.1,25.3,58.2,25.2
		c26.2-0.2,41.3-23.5,55.9-41.6c0,0-16.2-70.7-51.2-114.6C374.2,524.4,356.3,581.4,341.6,585.3L341.6,585.3z"/>
	<path class="st6" d="M341.6,585.3c-10,2.7-23.3-5.9-34.8-16.1c6.8,17.8,16.7,34.3,29.8,47.6c14.4,14.6,37.1,25.3,58.2,25.2
		c26.2-0.2,41.3-23.5,55.9-41.6c0,0-16.2-70.7-51.2-114.6C374.2,524.4,356.3,581.4,341.6,585.3L341.6,585.3z"/>
	<path class="st7" d="M658.4,585.3c10.1,2.7,23.4-5.9,34.9-16.2c6.4-16.9,9.9-35,10.4-52.2c0.7-26-7.1-62.4-40-64.8
		c-25.5-1.9-46.5,13-63.2,33.9C625.8,524.5,643.7,581.4,658.4,585.3z"/>
	<path class="st5" d="M549.2,600.7c0,0-2.3,5.6-6.4,12.8C545.7,609,547.9,604.6,549.2,600.7z"/>
	<path class="st8" d="M600.5,486c-13.2-20-28.4-35-46.2-35c-19,0-38,20-54.4,45.4c28.4,43.9,49.1,104,49.2,104.3
		C549.2,600.6,565.5,529.9,600.5,486L600.5,486z"/>
	<path class="st5" d="M450.8,600.7c0,0,0.2,0.4,0.5,1.2c-0.2-0.5-0.3-0.9-0.5-1.3C450.8,600.7,450.8,600.7,450.8,600.7L450.8,600.7z
		"/>
	<path class="st5" d="M549.2,600.7L549.2,600.7c-0.1-0.4-20.8-60.4-49.2-104.3c-27.7,42.9-48.1,101.2-49.2,104.2
		c0.1,0.4,0.3,0.9,0.5,1.3c0.8,1.7,2.4,5.3,4.7,9.5c8.8,14.5,25.3,30.9,44,33.5c17.8-2.5,33.8-17.5,42.8-31.5
		C546.9,606.3,549.2,600.7,549.2,600.7L549.2,600.7L549.2,600.7L549.2,600.7z"/>
	<path class="st9" d="M549.2,600.7c-0.1-0.4-20.8-60.4-49.2-104.3c-27.7,42.9-48.1,101.2-49.2,104.2c0.1,0.4,0.3,0.9,0.5,1.3
		c0.8,1.7,2.4,5.3,4.7,9.5c3.7,6.7,7.7,13.2,12.8,19c4.7,5.4,10,10.3,16.8,12.7c10.2,3.6,21.6,3.2,31.4-1.5
		c7.5-3.5,12.7-9.3,17.6-15.7c3-4,5.7-8.2,8.2-12.5C546.9,606.3,549.2,600.7,549.2,600.7L549.2,600.7z"/>
	<path class="st5" d="M549.2,600.7c14.6,18.1,29.7,41.4,55.9,41.6c21.1,0.1,43.8-10.6,58.2-25.2c13.2-13.3,23.2-30,30-47.9
		c-11.6,10.3-24.9,18.9-34.9,16.2c-14.7-3.9-32.6-60.8-57.9-99.3C565.5,529.9,549.2,600.6,549.2,600.7L549.2,600.7L549.2,600.7z"/>
	<path class="st10" d="M549.2,600.7c14.6,18.1,29.7,41.4,55.9,41.6c21.1,0.1,43.8-10.6,58.2-25.2c13.2-13.3,23.2-30,30-47.9
		c-11.6,10.3-24.9,18.9-34.9,16.2c-14.7-3.9-32.6-60.8-57.9-99.3C565.5,529.9,549.2,600.6,549.2,600.7L549.2,600.7L549.2,600.7z"/>
	<polygon class="st5" points="549.2,600.7 549.2,600.7 549.2,600.7 	"/>
	<polygon class="st5" points="549.2,600.7 549.2,600.7 549.2,600.7 	"/>
	<polygon class="st5" points="549.2,600.7 549.2,600.7 549.2,600.7 	"/>
</g>
</svg>
