<?xml version="1.0" encoding="utf-8"?>
<!-- Generator: Adobe Illustrator 24.0.0, SVG Export Plug-In . SVG Version: 6.00 Build 0)  -->
<svg version="1.1" id="Layer_1" xmlns="http://www.w3.org/2000/svg" xmlns:xlink="http://www.w3.org/1999/xlink" x="0px" y="0px"
	 viewBox="0 0 1000 1000" style="enable-background:new 0 0 1000 1000;" xml:space="preserve">
<style type="text/css">
	.st0{clip-path:url(#SVGID_2_);}
	.st1{fill:#FFFFFF;}
	.st2{opacity:0.15;}
	.st3{fill:#545454;}
	.st4{fill:url(#SVGID_3_);}
</style>
<g>
	<defs>
		<rect id="SVGID_1_" width="1000" height="1000"/>
	</defs>
	<clipPath id="SVGID_2_">
		<use xlink:href="#SVGID_1_"  style="overflow:visible;"/>
	</clipPath>
	<g class="st0">
		
			<image style="overflow:visible;enable-background:new    ;" width="3112" height="1212" xlink:href="FDD75E0E.png"  transform="matrix(1 0 0 1 -513 -99)">
		</image>
	</g>
</g>
<g>
	<g>
		<path class="st1" d="M705.1,503.4c0-0.4-0.1-0.7-0.2-1c-0.1-0.3-0.1-0.6-0.2-0.8c0-0.2-0.1-0.4-0.1-0.6c0-0.1,0-0.2,0-0.2l0,0
			c-4.1-19.2-21.2-33.6-41.6-33.6c-4,0-7.8,0.6-11.5,1.6c-13.3,2.9-24.7,10.9-32,21.9l0,0c-7.6,12-21,20-36.2,20c-0.1,0-0.2,0-0.3,0
			l0,0c-0.1,0-0.2,0-0.3,0c-15.2,0-28.6-8-36.2-19.9l0,0c-9.7-14.6-26.6-24-45.6-23.1c-26.7,1.2-48.3,23-49.3,49.7
			c-1.1,29.5,22.5,53.9,51.8,53.9c18,0,33.8-9.2,43.1-23.1l0,0c7.6-12,21-20,36.2-20c0.1,0,0.2,0,0.3,0l0,0c0.1,0,0.2,0,0.3,0
			c1.1,0,2.3,0,3.4,0.1c17.8,1.4,32.5,15,35.2,32.7c1.9,12.4-2.6,25-11.5,37.6c-23.9,32.6-62.4,53.8-105.8,54
			c-72,0.3-131.5-58-132.5-130c-1-73.7,58.4-133.8,131.9-133.8c12.3,0,19.1,1,30.4,4.2c0,0,0.1,0,0.1,0c0,0,0,0,0,0l0,0
			c3.9,1,8,1.4,12.2,1.1c19.2-1.2,35-16.5,36.6-35.7c1.7-19.9-11.4-37-29.5-41.5l0,0c-16.8-4.6-29.2-5.5-46.8-5.5
			c-115.3-0.5-211.8,93-212.3,208.2c-0.5,116,93.4,210.3,209.3,210.3c76.2,0,142.9-40.8,179.5-101.7
			C713.8,571.4,707.2,516,705.1,503.4L705.1,503.4z"/>
		<g>
			<g class="st2">
				<path class="st3" d="M705.1,503.4c0-0.4-0.1-0.7-0.2-1c-0.1-0.3-0.1-0.6-0.2-0.8c0-0.2-0.1-0.4-0.1-0.6c0-0.1,0-0.2,0-0.2l0,0
					c-4.1-19.2-21.2-33.6-41.6-33.6c-4,0-7.8,0.6-11.5,1.6c-13.3,2.9-24.7,10.9-32,21.9l0,0c-7.6,12-21,20-36.2,20
					c-0.1,0-0.2,0-0.3,0l0,0c-0.1,0-0.2,0-0.3,0c-15.2,0-28.6-8-36.2-19.9l0,0c-9.7-14.6-26.6-24-45.6-23.1
					c-26.7,1.2-48.3,23-49.3,49.7c-1.1,29.5,22.5,53.9,51.8,53.9c18,0,33.8-9.2,43.1-23.1l0,0c7.6-12,21-20,36.2-20
					c0.1,0,0.2,0,0.3,0l0,0c0.1,0,0.2,0,0.3,0c1.1,0,2.3,0,3.4,0.1c17.8,1.4,32.5,15,35.2,32.7c1.9,12.4-2.6,25-11.5,37.6
					c-23.9,32.6-62.4,53.8-105.8,54c-72,0.3-131.5-58-132.5-130c-1-73.7,58.4-133.8,131.9-133.8c12.3,0,19.1,1,30.4,4.2
					c0,0,0.1,0,0.1,0c0,0,0,0,0,0l0,0c3.9,1,8,1.4,12.2,1.1c19.2-1.2,35-16.5,36.6-35.7c1.7-19.9-11.4-37-29.5-41.5l0,0
					c-16.8-4.6-29.2-5.5-46.8-5.5c-115.3-0.5-211.8,93-212.3,208.2c-0.5,116,93.4,210.3,209.3,210.3c76.2,0,142.9-40.8,179.5-101.7
					C713.8,571.4,707.2,516,705.1,503.4L705.1,503.4z"/>
			</g>
		</g>
	</g>
	<g>
		
			<image style="overflow:visible;enable-background:new    ;" width="139" height="139" xlink:href="FDD75E12.png"  transform="matrix(1 0 0 1 590 436)">
		</image>
		
			<image style="overflow:visible;enable-background:new    ;" width="134" height="135" xlink:href="FDD75E15.png"  transform="matrix(1 0 0 1 602 448)">
		</image>
		
			<linearGradient id="SVGID_3_" gradientUnits="userSpaceOnUse" x1="633.4604" y1="512.8405" x2="710.9604" y2="454.2606" gradientTransform="matrix(1 0 0 -1 0 1000)">
			<stop  offset="0" style="stop-color:#FFFFFF"/>
			<stop  offset="0.17" style="stop-color:#F9F9F9"/>
			<stop  offset="0.39" style="stop-color:#EBEBEB"/>
			<stop  offset="0.61" style="stop-color:#D2D2D2"/>
			<stop  offset="0.86" style="stop-color:#B0B0B0"/>
			<stop  offset="1" style="stop-color:#999999"/>
		</linearGradient>
		<circle class="st4" cx="663" cy="509.5" r="36.7"/>
	</g>
</g>
</svg>
