<?xml version="1.0" encoding="utf-8"?>
<!-- Generator: Adobe Illustrator 24.0.0, SVG Export Plug-In . SVG Version: 6.00 Build 0)  -->
<svg version="1.1" id="Layer_1" xmlns="http://www.w3.org/2000/svg" xmlns:xlink="http://www.w3.org/1999/xlink" x="0px" y="0px"
	 viewBox="0 0 1000 1000" style="enable-background:new 0 0 1000 1000;" xml:space="preserve">
<style type="text/css">
	.st0{clip-path:url(#SVGID_2_);}
	.st1{opacity:0.4;}
	.st2{fill:#EBDFE1;}
	.st3{opacity:0.5;fill:url(#SVGID_3_);enable-background:new    ;}
	.st4{opacity:0.5;fill:url(#SVGID_4_);enable-background:new    ;}
</style>
<g>
	<g id="Layer_1_1_">
		<rect width="1000" height="1000"/>
		<g>
			<defs>
				<rect id="SVGID_1_" width="1000" height="1000"/>
			</defs>
			<clipPath id="SVGID_2_">
				<use xlink:href="#SVGID_1_"  style="overflow:visible;"/>
			</clipPath>
			<g class="st0">
				<g class="st1">
					
						<image style="overflow:visible;enable-background:new    ;" width="2250" height="1716" xlink:href="293D9931.png"  transform="matrix(1 0 0 1 -518 -252)">
					</image>
				</g>
			</g>
		</g>
		<g>
			<path class="st2" d="M663.4,360c-7.4-9.5-15.6-18.4-24.6-26.5c-8.9,8.1-17.2,17-24.6,26.5c-10.2,13.1-18.8,27.4-25.7,42.7
				c-12.6-28.3-31.5-53.3-54.7-73.1c-5.2-4.4-10.6-8.6-16.2-12.5c-5.7-4-11.6-7.6-17.7-11c-6.1,3.4-12,7.1-17.7,11
				c-5.6,3.9-11,8.1-16.2,12.5c-23.3,19.9-42.1,44.8-54.7,73.1c-6.8-15.3-15.5-29.6-25.6-42.7c-7.4-9.5-15.6-18.4-24.6-26.5
				c-8.9,8.1-17.2,17-24.6,26.5c-27.3,35.1-43.5,79.1-43.5,127s16.3,91.9,43.5,127c7.4,9.5,15.6,18.4,24.6,26.5
				c6.5,5.9,13.5,11.4,20.7,16.5c20.3,14.1,43.2,24.7,67.9,30.9c16.1,4,32.9,6.2,50.2,6.2c17.3,0,34.1-2.1,50.2-6.2
				c24.7-6.2,47.6-16.7,67.9-30.9c7.3-5.1,14.2-10.6,20.7-16.5c8.9-8.1,17.2-17,24.6-26.5C690.7,579,707,534.9,707,487
				S690.7,395.1,663.4,360L663.4,360z M500,348.8c42.7,31.1,70.4,81.4,70.4,138.2c0,0.1,0,0.3,0,0.4
				c-0.1,56.7-27.8,106.8-70.4,137.8c-42.6-31-70.3-81.2-70.4-137.8c0-0.1,0-0.3,0-0.4C429.6,430.2,457.3,379.8,500,348.8L500,348.8
				z M329.1,487c0-37.2,11.9-71.5,32-99.6c20.1,28,32,62.4,32,99.6c0,0.1,0,0.3,0,0.4h0.3c0.1,29.9,6.5,58.3,17.9,83.9
				c12.6,28.3,31.5,53.3,54.7,73.1c5.2,4.4,10.6,8.6,16.2,12.5c-11.2-1.2-22.1-3.4-32.5-6.6c-24-7.4-45.8-19.9-64.1-36.4
				c-9.1-8.2-17.4-17.4-24.6-27.4C341,558.5,329.1,524.2,329.1,487L329.1,487z M638.9,586.6c-7.2,10-15.4,19.2-24.6,27.4
				c-18.2,16.4-40,29-64.1,36.4c-10.5,3.2-21.3,5.5-32.5,6.6c5.6-3.9,11-8.1,16.2-12.5c23.3-19.9,42.1-44.8,54.7-73.1
				c11.5-25.6,17.8-54,17.9-83.9h0.3c0-0.1,0-0.3,0-0.4c0-37.2,11.9-71.6,32-99.6c20.1,28,32,62.4,32,99.6S659,558.6,638.9,586.6
				L638.9,586.6z"/>
			<g>
				
					<linearGradient id="SVGID_3_" gradientUnits="userSpaceOnUse" x1="399.8506" y1="563.3625" x2="512.8137" y2="628.5844" gradientTransform="matrix(1 0 0 -1 0 1000)">
					<stop  offset="0" style="stop-color:#FEF7E5"/>
					<stop  offset="0" style="stop-color:#FEDCD2"/>
					<stop  offset="0" style="stop-color:#FFA5AC"/>
					<stop  offset="0.16" style="stop-color:#FFBEC3;stop-opacity:0.71"/>
					<stop  offset="0.38" style="stop-color:#FFE1E3;stop-opacity:0.33"/>
					<stop  offset="0.53" style="stop-color:#FFF6F7;stop-opacity:9.000000e-02"/>
					<stop  offset="0.6" style="stop-color:#FFFFFF;stop-opacity:0"/>
				</linearGradient>
				<path class="st3" d="M429.4,487.7h0.3c0-0.1,0-0.3,0-0.4c0-56.8,27.7-107,70.4-138.1c-10.5-7.6-21.8-14.1-33.9-19.2
					c-23.2,19.9-42,44.8-54.7,73c11.5,25.7,17.9,54.2,17.9,84.2C429.4,487.4,429.4,487.6,429.4,487.7L429.4,487.7z"/>
				
					<linearGradient id="SVGID_4_" gradientUnits="userSpaceOnUse" x1="579.8712" y1="558.2515" x2="647.3384" y2="597.2057" gradientTransform="matrix(1 0 0 -1 0 1000)">
					<stop  offset="0" style="stop-color:#FEF7E5"/>
					<stop  offset="0" style="stop-color:#FEDCD2"/>
					<stop  offset="0" style="stop-color:#FFA5AC"/>
					<stop  offset="0.16" style="stop-color:#FFBEC3;stop-opacity:0.71"/>
					<stop  offset="0.38" style="stop-color:#FFE1E3;stop-opacity:0.33"/>
					<stop  offset="0.53" style="stop-color:#FFF6F7;stop-opacity:9.000000e-02"/>
					<stop  offset="0.6" style="stop-color:#FFFFFF;stop-opacity:0"/>
				</linearGradient>
				<path class="st4" d="M606.4,487.7h0.3c0-0.1,0-0.3,0-0.4c0-37.1,11.8-71.5,32-99.5c-7.2-10-15.4-19.2-24.5-27.4
					c-10.2,13.1-18.8,27.4-25.6,42.6c11.5,25.7,17.9,54.2,17.9,84.2C606.4,487.4,606.4,487.6,606.4,487.7L606.4,487.7z"/>
			</g>
		</g>
	</g>
</g>
</svg>
