<?xml version="1.0" encoding="utf-8"?>
<!-- Generator: Adobe Illustrator 24.0.0, SVG Export Plug-In . SVG Version: 6.00 Build 0)  -->
<svg version="1.1" id="Layer_1" xmlns="http://www.w3.org/2000/svg" xmlns:xlink="http://www.w3.org/1999/xlink" x="0px" y="0px"
	 viewBox="0 0 1000 1000" style="enable-background:new 0 0 1000 1000;" xml:space="preserve">
<style type="text/css">
	.st0{clip-path:url(#SVGID_2_);}
	.st1{clip-path:url(#SVGID_4_);}
	.st2{fill:#FF3600;}
	.st3{fill:#FF3E00;}
	.st4{fill:#FF4600;}
	.st5{fill:#FF4E00;}
	.st6{fill:#FF5600;}
	.st7{fill:#FF5E00;}
	.st8{fill:#FF6600;}
	.st9{fill:#FF6E00;}
	.st10{fill:#FF7600;}
	.st11{fill:#FF7E00;}
	.st12{fill:#FF8600;}
	.st13{fill:#FF8E00;}
	.st14{fill:#FF9600;}
	.st15{fill:#FF9E00;}
	.st16{fill:#FFA600;}
	.st17{fill:#FFAE00;}
	.st18{fill:#FFB600;}
	.st19{fill:#FFBE00;}
	.st20{fill:#FFC600;}
	.st21{fill:#FFCE00;}
	.st22{fill:#FFD600;}
	.st23{fill:#FFDE00;}
	.st24{fill:#FFE600;}
	.st25{fill:#FFEE00;}
	.st26{clip-path:url(#SVGID_6_);}
	.st27{clip-path:url(#SVGID_8_);}
</style>
<g>
	<defs>
		<rect id="SVGID_1_" width="1000" height="1000"/>
	</defs>
	<clipPath id="SVGID_2_">
		<use xlink:href="#SVGID_1_"  style="overflow:visible;"/>
	</clipPath>
	<g class="st0">
		
			<image style="overflow:visible;enable-background:new    ;" width="463" height="252" xlink:href="89BAB57C.png"  transform="matrix(5.1278 0 0 5.1278 -563.9999 -140.5546)">
		</image>
	</g>
</g>
<g>
	<g>
		<defs>
			<path id="SVGID_3_" d="M551.3,694c-18.5,0-36.3-3.2-52.8-9c-0.1,0-0.1,0-0.2,0.1v-0.2c-53-18.8-93.1-64.8-103.2-121.3
				c0-0.2-0.1-0.4-0.1-0.7c-1.6-9-2.4-18.3-2.4-27.7c0-25.9,6.2-50.4,17.2-72c1.3-2.7,2.6-5.4,4.1-8c1.8-3.1,3.8-6.1,5.9-9
				c17.7-24.1,46.3-39.8,78.5-39.8c36.1,0,67.6,19.6,84.4,48.7l0.1-0.1C564,423,534.1,398,498.5,385.5c-0.1,0-0.1,0-0.2,0.1v-0.1
				c-16.5-5.8-34.2-8.9-52.6-8.9c-39.2,0-75.1,14.2-102.8,37.8c-0.1,0.1-0.3,0.2-0.4,0.4c-34,29.1-55.5,72.4-55.5,120.6
				c0,28.7,7.6,55.5,20.9,78.7l-0.1,0c38,65.8,109.1,110,190.6,110c74.5,0,140.3-37,180.1-93.6C649.4,669,603.3,694,551.3,694
				L551.3,694z"/>
		</defs>
		<clipPath id="SVGID_4_">
			<use xlink:href="#SVGID_3_"  style="overflow:visible;"/>
		</clipPath>
		<g class="st1">
			<g>
				<polygon class="st2" points="847.8,552.2 311.9,320.7 319.5,302.2 855.4,533.7 				"/>
				<polygon class="st3" points="833.6,566.8 300.9,329.5 308.3,311.4 841,548.8 				"/>
				<polygon class="st4" points="819.3,581.4 289.8,338.2 297.2,320.7 826.6,563.8 				"/>
				<polygon class="st5" points="805,596 278.8,347 286,329.9 812.2,578.9 				"/>
				<polygon class="st6" points="790.8,610.5 267.8,355.7 274.9,339.2 797.9,594 				"/>
				<polygon class="st7" points="776.5,625.1 256.7,364.5 263.7,348.4 783.5,609.1 				"/>
				<polygon class="st8" points="762.2,639.7 245.7,373.2 252.6,357.6 769.1,624.1 				"/>
				<polygon class="st9" points="748,654.3 234.6,382 241.4,366.9 754.7,639.2 				"/>
				<polygon class="st10" points="733.7,668.9 223.6,390.7 230.2,376.1 740.3,654.3 				"/>
				<polygon class="st11" points="719.4,683.4 212.6,399.5 219.1,385.4 726,669.4 				"/>
				<polygon class="st12" points="705.2,698 201.5,408.2 207.9,394.6 711.6,684.4 				"/>
				<polygon class="st13" points="690.9,712.6 190.5,417 196.8,403.9 697.2,699.5 				"/>
				<polygon class="st14" points="676.6,727.2 179.4,425.7 185.6,413.1 682.8,714.6 				"/>
				<polygon class="st15" points="662.3,741.8 168.4,434.5 174.5,422.4 668.4,729.7 				"/>
				<polygon class="st16" points="648.1,756.3 157.4,443.2 163.3,431.6 654,744.7 				"/>
				<polygon class="st17" points="633.8,770.9 146.3,452 152.2,440.9 639.7,759.8 				"/>
				<polygon class="st18" points="619.5,785.5 135.3,460.7 141,450.1 625.3,774.9 				"/>
				<polygon class="st19" points="605.3,800.1 124.2,469.5 129.9,459.4 610.9,790 				"/>
				<polygon class="st20" points="591,814.7 113.2,478.2 118.7,468.6 596.5,805 				"/>
				<polygon class="st21" points="576.7,829.2 102.2,487 107.6,477.9 582.1,820.1 				"/>
				<polygon class="st22" points="562.5,843.8 91.1,495.7 96.4,487.1 567.8,835.2 				"/>
				<polygon class="st23" points="548.2,858.4 80.1,504.5 85.3,496.3 553.4,850.3 				"/>
				<polygon class="st24" points="533.9,873 69,513.2 74.1,505.6 539,865.3 				"/>
				<polygon class="st25" points="519.7,887.5 58,522 63,514.8 524.6,880.4 				"/>
			</g>
		</g>
	</g>
	<g>
		<defs>
			<path id="SVGID_5_" d="M688.8,394c-38-65.8-109.2-110-190.6-110v0.1c0.1,0,0.3,0,0.5,0c77.7,0,142.4,55.8,156.1,129.6
				c0.1,0.5,0.2,1,0.3,1.5c1.6,9,2.4,18.3,2.4,27.7c0,48.3-21.5,91.5-55.5,120.6c0,0.1,0,0.3-0.1,0.4l-0.2-0.1
				c-27.7,23.6-63.7,37.9-102.9,37.9c-0.1,0-0.3,0-0.5,0v-0.1c-36.1,0-67.6-19.6-84.4-48.7c-8.3-14.3-13-31-13-48.7
				c0-14.5,3.2-28.4,8.9-40.8c-11,21.6-17.2,46.1-17.2,72c0,9.5,0.8,18.7,2.4,27.7c0.2,0.1,0.3,0.3,0.5,0.4l-0.4,0.2
				c10.2,56.5,50.3,102.6,103.2,121.3c0.1,0,0.1,0,0.2,0.1c16.5,5.8,34.3,9,52.8,9c52,0,98.2-25,127.1-63.6
				c3.7-5.3,7.2-10.8,10.5-16.4c2.6-4.4,5-9,7.3-13.6c14.2-29.1,22.2-61.8,22.2-96.4C718.3,464,707.6,426.4,688.8,394L688.8,394z"/>
		</defs>
		<clipPath id="SVGID_6_">
			<use xlink:href="#SVGID_5_"  style="overflow:visible;"/>
		</clipPath>
		<g class="st26">
			<g>
				<polygon class="st2" points="436,157.4 394.1,739.7 374.1,738.6 416,156.4 				"/>
				<polygon class="st3" points="454.5,166 406,747.2 386.5,746.1 435,165 				"/>
				<polygon class="st4" points="473,174.7 417.9,754.7 399,753.6 454,173.6 				"/>
				<polygon class="st5" points="491.5,183.4 429.8,762.3 411.4,761.1 473,182.2 				"/>
				<polygon class="st6" points="509.9,192 441.7,769.8 423.8,768.6 491.9,190.8 				"/>
				<polygon class="st7" points="528.4,200.7 453.6,777.3 436.2,776 510.9,199.4 				"/>
				<polygon class="st8" points="546.8,209.4 465.5,784.9 448.6,783.5 529.9,208 				"/>
				<polygon class="st9" points="565.3,218 477.4,792.4 461,791 548.9,216.6 				"/>
				<polygon class="st10" points="583.8,226.7 489.3,800 473.4,798.5 567.8,225.2 				"/>
				<polygon class="st11" points="602.3,235.4 501.2,807.5 485.8,806 586.8,233.8 				"/>
				<polygon class="st12" points="620.7,244 513.1,815 498.2,813.5 605.8,242.4 				"/>
				<polygon class="st13" points="639.2,252.7 525,822.6 510.6,820.9 624.8,251 				"/>
				<polygon class="st14" points="657.7,261.3 537,830.1 523,828.4 643.7,259.6 				"/>
				<polygon class="st15" points="676.1,270 548.8,837.6 535.4,835.9 662.7,268.3 				"/>
				<polygon class="st16" points="694.6,278.7 560.8,845.2 547.8,843.4 681.7,276.9 				"/>
				<polygon class="st17" points="713.1,287.3 572.7,852.7 560.2,850.8 700.6,285.5 				"/>
				<polygon class="st18" points="731.5,296 584.5,860.3 572.6,858.3 719.6,294.1 				"/>
				<polygon class="st19" points="750,304.7 596.5,867.8 585,865.8 738.6,302.7 				"/>
				<polygon class="st20" points="768.5,313.3 608.3,875.3 597.5,873.3 757.6,311.3 				"/>
				<polygon class="st21" points="786.9,322 620.3,882.9 609.8,880.8 776.5,319.9 				"/>
				<polygon class="st22" points="805.4,330.7 632.2,890.4 622.3,888.3 795.5,328.5 				"/>
				<polygon class="st23" points="823.9,339.3 644,898 634.7,895.7 814.5,337.1 				"/>
				<polygon class="st24" points="842.3,348 656,905.5 647.1,903.2 833.5,345.7 				"/>
				<polygon class="st25" points="860.8,356.6 667.8,913 659.5,910.7 852.4,354.3 				"/>
			</g>
		</g>
	</g>
	<g>
		<defs>
			<path id="SVGID_7_" d="M655.1,415.1c-0.4-0.3-0.8-0.6-1.2-1l0.9-0.5C641.1,339.9,576.4,284,498.7,284c-0.1,0-0.3,0-0.5,0V284
				c-81.4,0-152.5,44.3-190.6,110c-18.7,32.4-29.5,70-29.5,110s10.7,77.7,29.5,110l0.1,0c-13.3-23.2-20.9-50.1-20.9-78.7
				c0-48.3,21.5-91.5,55.5-120.6c0-0.2,0.1-0.4,0.1-0.5l0.3,0.2c27.7-23.6,63.6-37.8,102.8-37.8c18.4,0,36.1,3.1,52.6,8.9
				c0.1,0,0.1,0,0.2,0.1c35.7,12.6,65.5,37.5,84.3,69.7l-0.1,0.1c8.3,14.3,13,31,13,48.7s-4.8,34.4-13,48.7
				c-16.8,29.1-48.3,48.7-84.4,48.7v0.1c0.1,0,0.3,0,0.5,0c39.3,0,75.2-14.3,102.9-37.9c0.1-0.1,0.2-0.2,0.3-0.3
				c34-29.1,55.5-72.4,55.5-120.6C657.5,433.3,656.6,424.1,655.1,415.1L655.1,415.1z"/>
		</defs>
		<clipPath id="SVGID_8_">
			<use xlink:href="#SVGID_7_"  style="overflow:visible;"/>
		</clipPath>
		<g class="st27">
			<g>
				<polygon class="st2" points="654.3,838.7 668.4,255.1 688.4,255.1 674.4,838.8 				"/>
				<polygon class="st3" points="635.5,830.9 656.2,248.1 675.7,248.3 655,831.1 				"/>
				<polygon class="st4" points="616.6,823.2 643.9,241.2 662.9,241.4 635.7,823.4 				"/>
				<polygon class="st5" points="597.8,815.4 631.7,234.2 650.2,234.5 616.3,815.7 				"/>
				<polygon class="st6" points="578.9,807.6 619.4,227.2 637.5,227.6 596.9,808 				"/>
				<polygon class="st7" points="560,799.8 607.2,220.3 624.7,220.7 577.6,800.3 				"/>
				<polygon class="st8" points="541.2,792.1 594.9,213.3 612,213.9 558.2,792.6 				"/>
				<polygon class="st9" points="522.3,784.3 582.7,206.4 599.2,207 538.8,784.9 				"/>
				<polygon class="st10" points="503.5,776.5 570.5,199.4 586.5,200.1 519.5,777.2 				"/>
				<polygon class="st11" points="484.6,768.7 558.2,192.4 573.7,193.2 500.1,769.5 				"/>
				<polygon class="st12" points="465.8,761 546,185.5 561,186.3 480.8,761.8 				"/>
				<polygon class="st13" points="446.9,753.2 533.7,178.5 548.2,179.4 461.4,754.1 				"/>
				<polygon class="st14" points="428,745.4 521.5,171.5 535.5,172.6 442,746.4 				"/>
				<polygon class="st15" points="409.2,737.6 509.2,164.6 522.7,165.7 422.7,738.8 				"/>
				<polygon class="st16" points="390.3,729.9 497,157.6 510,158.8 403.3,731.1 				"/>
				<polygon class="st17" points="371.5,722.1 484.7,150.6 497.2,151.9 383.9,723.4 				"/>
				<polygon class="st18" points="352.6,714.3 472.5,143.7 484.5,145 364.6,715.7 				"/>
				<polygon class="st19" points="333.7,706.5 460.2,136.7 471.7,138.2 345.2,708 				"/>
				<polygon class="st20" points="314.9,698.8 448,129.8 459,131.3 325.9,700.3 				"/>
				<polygon class="st21" points="296,691 435.7,122.8 446.2,124.4 306.5,692.6 				"/>
				<polygon class="st22" points="277.1,683.2 423.5,115.8 433.5,117.5 287.1,684.9 				"/>
				<polygon class="st23" points="258.3,675.5 411.3,108.9 420.7,110.6 267.8,677.2 				"/>
				<polygon class="st24" points="239.4,667.7 399,101.9 408,103.8 248.4,669.5 				"/>
				<polygon class="st25" points="220.6,659.9 386.8,95 395.2,96.9 229.1,661.8 				"/>
			</g>
		</g>
	</g>
</g>
</svg>
