<?xml version="1.0" encoding="utf-8"?>
<!-- Generator: Adobe Illustrator 24.0.0, SVG Export Plug-In . SVG Version: 6.00 Build 0)  -->
<svg version="1.1" id="Layer_1" xmlns="http://www.w3.org/2000/svg" xmlns:xlink="http://www.w3.org/1999/xlink" x="0px" y="0px"
	 viewBox="0 0 1000 1000" style="enable-background:new 0 0 1000 1000;" xml:space="preserve">
<style type="text/css">
	.st0{clip-path:url(#SVGID_2_);}
	.st1{fill:url(#SVGID_3_);}
	.st2{fill:url(#SVGID_4_);}
</style>
<g>
	<defs>
		<rect id="SVGID_1_" width="1000" height="1000"/>
	</defs>
	<clipPath id="SVGID_2_">
		<use xlink:href="#SVGID_1_"  style="overflow:visible;"/>
	</clipPath>
	<g class="st0">
		
			<image style="overflow:visible;enable-background:new    ;" width="485" height="263" xlink:href="71F406A0.png"  transform="matrix(3.9909 0 0 3.9909 -340.1371 -15)">
		</image>
	</g>
</g>
<g>
	
		<image style="overflow:visible;enable-background:new    ;" width="576" height="351" xlink:href="71F406A1.png"  transform="matrix(1 0 0 1 212 325)">
	</image>
	<g>
		<g>
			
				<linearGradient id="SVGID_3_" gradientUnits="userSpaceOnUse" x1="345.1099" y1="515.465" x2="751.1699" y2="515.465" gradientTransform="matrix(1 0 0 -1 0 1000)">
				<stop  offset="0" style="stop-color:#CFE1FF"/>
				<stop  offset="0.5" style="stop-color:#B2F0FF"/>
				<stop  offset="1" style="stop-color:#99FFFF"/>
			</linearGradient>
			<path class="st1" d="M740.4,430.8c-4.2-10.1-9.7-19.6-16.1-28.4c-11.1-15.1-25.1-27.9-41.3-37.6c-10.5-6.3-22-11.2-34.1-14.5
				c-11.8-3.2-24.2-5-37-5c-24.4,0-47.3,6.3-67.3,17.4l0.1-0.1l-0.2,0.1c-9.8,5.4-18.8,11.9-27,19.5l-21.1,15.2l-43.3,33.2
				l-26.2,20.1l-81.9,62.8c9.3,13.8,25,22.8,42.9,22.8c11.7,0,22.5-3.9,31.2-10.5l0.3,0.4l53.2-40.8l0,0l49.5-37.9l30.4-23.3
				l16.5-12.6c12.6-7.4,27.2-11.7,42.9-11.7c7.5,0,14.8,1,21.7,2.8c19.4,5.1,36.1,17,47.4,32.9c6.4,9,11,19.2,13.5,30.3
				c1.3,6,2.1,12.2,2.1,18.6c0,46.8-37.9,84.7-84.7,84.7h-4.3c-30,0-57.8,9.5-80.5,25.7c-0.2-0.1-0.3-0.3-0.5-0.4l-37.9,29h116
				c2.4,0.1,4.8,0.2,7.1,0.2s4.8-0.1,7.1-0.2c27.3-1.4,52.5-10.6,73.4-25.5c35.5-25.2,58.7-66.7,58.7-113.5
				C751.2,465.5,747.3,447.3,740.4,430.8L740.4,430.8z"/>
		</g>
		<g>
			
				<linearGradient id="SVGID_4_" gradientUnits="userSpaceOnUse" x1="248.8001" y1="515.47" x2="654.8701" y2="515.47" gradientTransform="matrix(1 0 0 -1 0 1000)">
				<stop  offset="0" style="stop-color:#CFE1FF"/>
				<stop  offset="0.5" style="stop-color:#B2F0FF"/>
				<stop  offset="1" style="stop-color:#99FFFF"/>
			</linearGradient>
			<path class="st2" d="M546.7,538.5l26.2-20.1l82-62.8c-9.3-13.8-25-22.8-42.9-22.8c-12.7,0-24.3,4.5-33.2,12.1l-0.1-0.1
				l-51.4,39.4h0l-49.4,37.8l-33.3,25.5l-10.3,7.9c-13.3,8.7-29.1,13.7-46.2,13.7c-7.3,0-14.5-0.9-21.3-2.7
				c-19.6-5.1-36.4-17-47.8-33c-6.4-9-11-19.2-13.5-30.3c-1.4-6-2.1-12.2-2.1-18.6c0-46.8,37.9-84.7,84.7-84.7h5.1
				c29.8,0,57.4-9.4,80.1-25.4c0,0,0,0,0.1,0l1.6-1.2l6-4.6c8.5-6.9,16.1-14.7,22.8-23.4H388c-29.8,0-57.4,9.4-80.1,25.4
				c-35.8,25.2-59.2,66.8-59.2,113.9c0,19.1,3.8,37.2,10.8,53.8c4.2,10.1,9.7,19.6,16.1,28.4c11.2,15.2,25.3,28.1,41.7,37.8
				c10.6,6.3,22.1,11.2,34.2,14.4c9.4,2.6,19.3,4.2,29.4,4.7c2.4,0.1,4.8,0.2,7.1,0.2s4.8-0.1,7.1-0.2c27.7-1.4,53.3-10.9,74.5-26.3
				l0.2,0.2l33.6-25.8L546.7,538.5L546.7,538.5z"/>
		</g>
	</g>
</g>
</svg>
