<?xml version="1.0" encoding="utf-8"?>
<!-- Generator: Adobe Illustrator 24.0.0, SVG Export Plug-In . SVG Version: 6.00 Build 0)  -->
<svg version="1.1" id="Layer_1" xmlns="http://www.w3.org/2000/svg" xmlns:xlink="http://www.w3.org/1999/xlink" x="0px" y="0px"
	 viewBox="0 0 1000 1000" style="enable-background:new 0 0 1000 1000;" xml:space="preserve">
<style type="text/css">
	.st0{opacity:0.5;}
	.st1{clip-path:url(#SVGID_2_);}
	.st2{fill:url(#SVGID_3_);}
	.st3{opacity:0.2;}
	.st4{fill:url(#SVGID_4_);}
	.st5{fill:url(#SVGID_5_);}
	.st6{fill:url(#SVGID_6_);}
	.st7{fill:url(#SVGID_7_);}
	.st8{fill:url(#SVGID_8_);}
</style>
<g class="st0">
	<g>
		<defs>
			<rect id="SVGID_1_" width="1000" height="1000"/>
		</defs>
		<clipPath id="SVGID_2_">
			<use xlink:href="#SVGID_1_"  style="overflow:visible;"/>
		</clipPath>
		<g class="st1">
			
				<image style="overflow:visible;enable-background:new    ;" width="371" height="264" xlink:href="CFAC6135.png"  transform="matrix(5.52 0 0 5.52 -456.36 -230.17)">
			</image>
		</g>
	</g>
</g>
<g>
	
		<linearGradient id="SVGID_3_" gradientUnits="userSpaceOnUse" x1="667.8215" y1="259.1888" x2="379.3115" y2="646.3387" gradientTransform="matrix(1 0 0 -1 0 1000)">
		<stop  offset="0" style="stop-color:#FFBA00"/>
		<stop  offset="9.000000e-02" style="stop-color:#FFBA13"/>
		<stop  offset="0.27" style="stop-color:#FFBC45"/>
		<stop  offset="0.47" style="stop-color:#FFBE82"/>
		<stop  offset="0.72" style="stop-color:#CB7ABA"/>
		<stop  offset="1" style="stop-color:#8D29FF"/>
	</linearGradient>
	<path class="st2" d="M537.4,504.3c1.7-0.1,3.5-0.2,5.1-0.4c13.5-1.9,25.4-8.4,34.4-17.7c5.5-5.8,9.9-12.7,12.8-20.3
		c2.4-6.5,3.8-13.4,3.8-20.7c0-0.1,0-0.1,0-0.2c0-7.2-1.3-14.1-3.6-20.5c-8.4-22.8-30.3-39.1-56-39.1l0,0v0h-91.9v80.6h-36.7V352.7
		h133.8v0.1c0.4,0,0.8,0,1.2,0c28.1,0,53.3,12.6,70.2,32.5c9.4,11.1,16.3,24.4,19.6,39.1c1.5,6.6,2.3,13.5,2.3,20.5
		c0,0.1,0,0.1,0,0.2c0,7.1-0.8,14.1-2.4,20.7c-3.3,14.4-10.1,27.6-19.3,38.5c-4.7,5.6-10,10.5-15.9,14.9
		c-10.4,7.6-22.4,13.1-35.4,15.9c-4.5,1-9.2,1.6-13.9,1.8H442.1l-11.5,0.2l0,0c-3.3,0-6.5,0.3-9.7,0.8c-5.4,0.9-10.6,2.4-15.5,4.5
		c-15,6.5-27.1,18.6-33.7,33.6c-2.9,6.7-4.8,14-5.3,21.6c-0.1,1.4-0.1,2.9-0.1,4.3c0,0.8,0,1.7,0,2.5c0,0.6,0.1,1.2,0.1,1.8v74h113
		V576.1H497l12.4,24.9l1.8,3.5l18.3,36.7l19.5,39.1H681v-1.5l-20.3-37.5l-19.8-36.7l-15.4-28.4l-2.2-4.1l-9.8-18
		c7.4-5,14.2-10.6,20.4-16.9c9.4-9.5,17.3-20.5,23.5-32.6c6-11.9,10.3-24.9,12.5-38.5c0.3-1.8,0.5-3.6,0.8-5.5
		c0.6-5,0.9-10.1,0.9-15.3c0-7.1-0.6-14-1.6-20.7c-2.2-13.9-6.6-27-12.8-39.1c-6.2-12.1-14.3-23-23.8-32.6
		c-23.7-23.8-56.5-38.5-92.7-38.5H366.4V528c9.9-11.4,23.5-19.5,38.9-22.4c0.5-0.1,1-0.2,1.5-0.3c3.6-0.6,7.3-0.9,11.1-0.9h112.3
		L537.4,504.3L537.4,504.3z M486,465.9h-6.6v-41.5h57c3.3,0.4,6.3,1.5,8.9,3.3c5.6,3.7,9.3,10,9.3,17.2c0,0,0,0,0,0
		c0,0.1,0,0.1,0,0.2c-0.1,11.3-9.3,20.4-20.7,20.4l-12,0.3H486L486,465.9z M405.5,641.2c0-0.6,0-1.2,0.1-1.7c-0.1,0-0.2,0-0.3,0v-35
		h0c0-0.3,0-0.6,0-1c0-15.2,12.3-27.5,27.5-27.5c3.2,0,6.3,0.6,9.2,1.6v63.6L405.5,641.2L405.5,641.2z M573.3,641.2L555,604.5
		l-1-1.9l-13.2-26.5l0,0c13.1,0,25.7-2,37.6-5.6l3,5.6l8.9,16.4l6.5,12l19.8,36.7L573.3,641.2L573.3,641.2z"/>
	<g class="st3">
		
			<linearGradient id="SVGID_4_" gradientUnits="userSpaceOnUse" x1="762.0464" y1="329.4048" x2="473.5264" y2="716.5547" gradientTransform="matrix(1 0 0 -1 0 1000)">
			<stop  offset="0" style="stop-color:#FFBA00"/>
			<stop  offset="9.000000e-02" style="stop-color:#FFBA13"/>
			<stop  offset="0.27" style="stop-color:#FFBC45"/>
			<stop  offset="0.47" style="stop-color:#FFBE82"/>
			<stop  offset="0.72" style="stop-color:#CB7ABA"/>
			<stop  offset="1" style="stop-color:#8D29FF"/>
		</linearGradient>
		<path class="st4" d="M670.9,465.9c0-1.8-0.1-3.7-0.3-5.5c-0.2,1.8-0.5,3.7-0.8,5.5c-2.2,13.6-6.5,26.6-12.5,38.5
			c-6.1,12.1-14.1,23-23.5,32.6c-6.2,6.3-13,12-20.4,16.9l9.8,18c11.7-9.9,21.6-21.7,29.4-35c5.9-10.1,10.5-21,13.6-32.6
			c3-11.2,4.7-23,4.7-35.1C670.9,468.1,670.9,467,670.9,465.9L670.9,465.9z"/>
		
			<linearGradient id="SVGID_5_" gradientUnits="userSpaceOnUse" x1="676.4647" y1="265.6234" x2="387.9446" y2="652.7834" gradientTransform="matrix(1 0 0 -1 0 1000)">
			<stop  offset="0" style="stop-color:#FFBA00"/>
			<stop  offset="9.000000e-02" style="stop-color:#FFBA13"/>
			<stop  offset="0.27" style="stop-color:#FFBC45"/>
			<stop  offset="0.47" style="stop-color:#FFBE82"/>
			<stop  offset="0.72" style="stop-color:#CB7ABA"/>
			<stop  offset="1" style="stop-color:#8D29FF"/>
		</linearGradient>
		<path class="st5" d="M581.5,576.1l-3-5.6c-11.9,3.6-24.5,5.5-37.6,5.6l0,0l13.2,26.5c12.8-1.7,24.9-5.1,36.3-10.1L581.5,576.1
			L581.5,576.1z"/>
		
			<linearGradient id="SVGID_6_" gradientUnits="userSpaceOnUse" x1="624.4733" y1="226.8825" x2="335.9633" y2="614.0325" gradientTransform="matrix(1 0 0 -1 0 1000)">
			<stop  offset="0" style="stop-color:#FFBA00"/>
			<stop  offset="9.000000e-02" style="stop-color:#FFBA13"/>
			<stop  offset="0.27" style="stop-color:#FFBC45"/>
			<stop  offset="0.47" style="stop-color:#FFBE82"/>
			<stop  offset="0.72" style="stop-color:#CB7ABA"/>
			<stop  offset="1" style="stop-color:#8D29FF"/>
		</linearGradient>
		<polygon class="st6" points="509.4,601 497,576.1 490.6,576.1 486,576.1 479.4,576.1 479.4,591 479.4,602 479.4,604.5 
			495.9,604.5 511.2,604.5 		"/>
		
			<linearGradient id="SVGID_7_" gradientUnits="userSpaceOnUse" x1="574.2495" y1="189.4571" x2="285.7395" y2="576.6071" gradientTransform="matrix(1 0 0 -1 0 1000)">
			<stop  offset="0" style="stop-color:#FFBA00"/>
			<stop  offset="9.000000e-02" style="stop-color:#FFBA13"/>
			<stop  offset="0.27" style="stop-color:#FFBC45"/>
			<stop  offset="0.47" style="stop-color:#FFBE82"/>
			<stop  offset="0.72" style="stop-color:#CB7ABA"/>
			<stop  offset="1" style="stop-color:#8D29FF"/>
		</linearGradient>
		<path class="st7" d="M432.9,576.1c-15.2,0-27.5,12.3-27.5,27.5c0,0.3,0,0.6,0,1h0v35c0.1,0,0.2,0,0.3,0c0.4-6.8,2.6-13,6.2-18.4
			c6.6-9.8,17.7-16.3,30.3-16.5v-27C439.2,576.6,436.1,576.1,432.9,576.1L432.9,576.1z"/>
		
			<linearGradient id="SVGID_8_" gradientUnits="userSpaceOnUse" x1="714.218" y1="293.7586" x2="425.6981" y2="680.9086" gradientTransform="matrix(1 0 0 -1 0 1000)">
			<stop  offset="0" style="stop-color:#FFBA00"/>
			<stop  offset="9.000000e-02" style="stop-color:#FFBA13"/>
			<stop  offset="0.27" style="stop-color:#FFBC45"/>
			<stop  offset="0.47" style="stop-color:#FFBE82"/>
			<stop  offset="0.72" style="stop-color:#CB7ABA"/>
			<stop  offset="1" style="stop-color:#8D29FF"/>
		</linearGradient>
		<path class="st8" d="M554.6,444.9c0-7.2-3.7-13.5-9.3-17.2c-2.6-1.7-5.7-2.9-8.9-3.3h-57v20.7h75.2
			C554.6,445.1,554.6,445,554.6,444.9C554.6,444.9,554.6,444.9,554.6,444.9L554.6,444.9z"/>
	</g>
</g>
</svg>
