<?xml version="1.0" encoding="utf-8"?>
<!-- Generator: Adobe Illustrator 24.0.0, SVG Export Plug-In . SVG Version: 6.00 Build 0)  -->
<svg version="1.1" id="Layer_1" xmlns="http://www.w3.org/2000/svg" xmlns:xlink="http://www.w3.org/1999/xlink" x="0px" y="0px"
	 viewBox="0 0 1000 1000" style="enable-background:new 0 0 1000 1000;" xml:space="preserve">
<style type="text/css">
	.st0{fill:#F2EEE9;}
	.st1{fill:url(#SVGID_1_);}
	.st2{fill:url(#SVGID_2_);}
	.st3{fill:url(#SVGID_3_);}
	.st4{fill:url(#SVGID_4_);}
	.st5{fill:url(#SVGID_5_);}
	.st6{fill:url(#SVGID_6_);}
	.st7{fill:url(#SVGID_7_);}
</style>
<rect class="st0" width="1000" height="1000"/>
<g>
	
		<radialGradient id="SVGID_1_" cx="485.85" cy="464.62" r="175.84" gradientTransform="matrix(1 0 0 -1 0 1000)" gradientUnits="userSpaceOnUse">
		<stop  offset="0" style="stop-color:#1C1564"/>
		<stop  offset="0.36" style="stop-color:#1C1666"/>
		<stop  offset="0.57" style="stop-color:#1E1A6E"/>
		<stop  offset="0.74" style="stop-color:#20207C"/>
		<stop  offset="0.89" style="stop-color:#242A90"/>
		<stop  offset="1" style="stop-color:#2934A5"/>
	</radialGradient>
	<circle class="st1" cx="485.9" cy="535.4" r="175.8"/>
	
		<linearGradient id="SVGID_2_" gradientUnits="userSpaceOnUse" x1="644.0411" y1="584.8463" x2="503.6411" y2="386.9763" gradientTransform="matrix(1 0 0 -1 0 1000)">
		<stop  offset="0.3" style="stop-color:#1C1564"/>
		<stop  offset="1" style="stop-color:#2934A5"/>
	</linearGradient>
	<path class="st2" d="M644.8,663.8c3.1-3.2,18.8-59.2-4-100.5c-18.2-33.1-45.9-48.9-87-54.2c-12.2-1.6-24.8,0.6-36.1,4.1l-0.8,0.5
		c1.3-0.9,7.3,1.1,8.6,1.4c6.9,1.4,13.7,3.5,20.2,6.3c17.6,7.5,32.8,20.6,38.4,39.4c4.8,16.2,3.4,34.3-5.4,48.9
		c-8.2,13.7-21.5,22.6-36.7,27c-13,3.7-27.5,4.1-41,3.9c-11.5-0.2-23-1.4-34.2-3.9c-18.1-4-35.4-11.5-50.4-22.5
		c-11.6-8.5-21.8-18.9-30.1-30.6c-5.5-7.8-10.3-16.2-14-25c-0.9-2.2-1.8-4.5-2.5-6.8l-1.3,1.3c3.7,70.3,44.5,130.8,103.1,161.7
		c10,1.4,20.3,2.2,30.7,2.2c55,0,105.3-20.4,143.6-54c-0.8,0.5-1.6,1-2.5,1.5"/>
	
		<linearGradient id="SVGID_3_" gradientUnits="userSpaceOnUse" x1="574.1997" y1="534.7298" x2="681.9497" y2="401.5098" gradientTransform="matrix(1 0 0 -1 0 1000)">
		<stop  offset="0.49" style="stop-color:#1C1564"/>
		<stop  offset="0.61" style="stop-color:#20207C"/>
		<stop  offset="0.75" style="stop-color:#252B92"/>
		<stop  offset="0.88" style="stop-color:#2831A0"/>
		<stop  offset="1" style="stop-color:#2934A5"/>
	</linearGradient>
	<path class="st3" d="M706.5,572.8C690.7,448,573.5,445,573.5,445c-14.1,0-27,1.3-38.6,3.7c0.2,0,85.7,3.6,106.4,64.6
		c4.8,4.7,7.3,8.1,7.3,8.1s34,37.9,24.2,88.5c0,0-0.4,1.7-1.1,4.4l0.1,0.3l-0.4,0.9c-2.6,9.6-8.7,29.4-18.7,41.3l-0.1,0.3
		c26.3-25,47-58.5,58.3-94l-0.6-3.3C708.6,567.7,706.5,572.8,706.5,572.8L706.5,572.8z"/>
	
		<linearGradient id="SVGID_4_" gradientUnits="userSpaceOnUse" x1="480.19" y1="425.2482" x2="674.4557" y2="425.2482" gradientTransform="matrix(1 0 0 -1 0 1000)">
		<stop  offset="0" style="stop-color:#00FFFF"/>
		<stop  offset="0.51" style="stop-color:#378FDA"/>
		<stop  offset="1" style="stop-color:#F96EDE"/>
	</linearGradient>
	<path class="st4" d="M648.5,521.3c0,0-2.4-3.4-7.3-8.1c-12.2-11.9-39.7-32.4-81.4-27.5c-58.1,6.8-79.7,46-79.7,46
		c0.5-1,16.7-12.1,37.5-18.6l0,0c11.3-3.5,23.9-5.7,36.1-4.1c41.1,5.3,68.8,21.1,87,54.2c22.8,41.3,6.5,98,3.3,101.2
		c0.2-0.1,0.4-0.3,0.5-0.4c0.4-0.4,0.7-0.6,1.2-1c0.7-0.6,1.4-1.2,2-1.8l0,0c1.3-1.2,2.7-2.5,4-3.7c0.3-0.3,0.4-0.3,0.7-0.7
		c10.7-11.3,16.1-31.9,18.7-41.5c0.1-0.4,0.2-0.8,0.3-1.2l0,0c0.7-2.8,1.1-4.4,1.1-4.4C682.5,559.2,648.5,521.3,648.5,521.3
		L648.5,521.3z"/>
	
		<radialGradient id="SVGID_5_" cx="453.1" cy="654.4" r="309.25" gradientTransform="matrix(1 0 0 -1 0 1000)" gradientUnits="userSpaceOnUse">
		<stop  offset="0.3" style="stop-color:#1C1564"/>
		<stop  offset="1" style="stop-color:#2934A5"/>
	</radialGradient>
	<path class="st5" d="M698.4,403.5c-35-36.3-83.1-55.1-137.4-55.1c-35.8,0-69.3,9.8-98.1,27l-1.6,1.5c0,0,43.5-8.3,94.4,9.4
		c33.5-2.1,87.6,2.8,125,54.9c35.5,49.4,33.6,95.8,29.4,118.9l0.6,2.9c6.2-20.3,9.6-41.8,9.6-64c0-38.3-9.9-74.2-27.2-105.5l-1.9-2
		C694.1,396.6,695.9,398.2,698.4,403.5L698.4,403.5z"/>
	
		<linearGradient id="SVGID_6_" gradientUnits="userSpaceOnUse" x1="416.6476" y1="519.4698" x2="712.4366" y2="519.4698" gradientTransform="matrix(1 0 0 -1 0 1000)">
		<stop  offset="0" style="stop-color:#00FFFF"/>
		<stop  offset="0.51" style="stop-color:#378FDA"/>
		<stop  offset="1" style="stop-color:#F96EDE"/>
	</linearGradient>
	<path class="st6" d="M680.8,441.1c-37.4-52.1-91.5-57-125-54.9c-11.5,0.7-20.5,2.3-25.7,3.1c-20.1,3.1-75.3,23.6-99.7,79.2
		c-24.3,55.6-9.3,106.6-9.3,106.6s9.4-105.3,113.6-126.5c11.6-2.4,24.5-3.7,38.6-3.7c0,0,117.2,5.5,133,130.2c0,0,1.6-4.6,3.2-12.5
		c0.2-0.8,0.3-1.7,0.5-2.6C714.4,537,716.3,490.5,680.8,441.1L680.8,441.1z"/>
	
		<linearGradient id="SVGID_7_" gradientUnits="userSpaceOnUse" x1="284.12" y1="502.155" x2="700.1099" y2="502.155" gradientTransform="matrix(1 0 0 -1 0 1000)">
		<stop  offset="0" style="stop-color:#00FFFF"/>
		<stop  offset="0.51" style="stop-color:#378FDA"/>
		<stop  offset="1" style="stop-color:#F96EDE"/>
	</linearGradient>
	<path class="st7" d="M692,391.1C655.8,327.5,588.3,284.2,511,281c-0.5,0-1.1,0-1.6-0.1c-0.9,0-1.8,0-2.6-0.1c-1.3,0-2.6,0-3.9,0
		c-0.3,0-0.5,0-0.8,0c-20.2,0-39.7,2.8-58.3,7.9c-0.5,0.1-1,0.3-1.4,0.4c-0.3,0.1-0.6,0.2-0.9,0.3
		c-90.7,26.3-157.1,110.4-157.4,210.2c0.3,98.2,65.5,181.1,154.9,208.2c10.5,3.2,21.4,5.6,32.5,7.2c-58.6-31-99.5-91.4-103.1-161.7
		c-0.2-3.5-0.3-6.9-0.3-10.4c0-71.3,38.1-133.5,94.9-167.4c28.7-17.1,62.3-27,98.1-27c54.3,0,104,22.4,139,58.7
		c-1.4-3.1-3.2-6.7-4.8-9.7C694.1,395.2,693.2,393.3,692,391.1L692,391.1z"/>
</g>
</svg>
