<?xml version="1.0" encoding="utf-8"?>
<!-- Generator: Adobe Illustrator 24.0.0, SVG Export Plug-In . SVG Version: 6.00 Build 0)  -->
<svg version="1.1" id="Layer_1" xmlns="http://www.w3.org/2000/svg" xmlns:xlink="http://www.w3.org/1999/xlink" x="0px" y="0px"
	 viewBox="0 0 1000 1000" style="enable-background:new 0 0 1000 1000;" xml:space="preserve">
<style type="text/css">
	.st0{fill:#0F0F0E;}
	.st1{fill:#FFFFFF;}
	.st2{fill:url(#SVGID_1_);}
	.st3{fill:url(#SVGID_2_);}
</style>
<rect class="st0" width="1000" height="1000"/>
<g>
	<polygon class="st1" points="499.1,707 499.1,707 499.1,707.1 499.1,707 	"/>
	
		<linearGradient id="SVGID_1_" gradientUnits="userSpaceOnUse" x1="259.5" y1="556.4038" x2="737.36" y2="556.4038" gradientTransform="matrix(1 0 0 -1 0 1000)">
		<stop  offset="0" style="stop-color:#DE5241"/>
		<stop  offset="0.12" style="stop-color:#DA4E3E"/>
		<stop  offset="0.22" style="stop-color:#D04435"/>
		<stop  offset="0.32" style="stop-color:#BE3227"/>
		<stop  offset="0.41" style="stop-color:#A51914"/>
		<stop  offset="0.48" style="stop-color:#8C0000"/>
		<stop  offset="0.61" style="stop-color:#910008"/>
		<stop  offset="0.81" style="stop-color:#9F001E"/>
		<stop  offset="1" style="stop-color:#B2013B"/>
	</linearGradient>
	<path class="st2" d="M737.4,293.1c-5,0-9.9-0.1-14.9,0c-6.6,0.2-13.2,1.3-19.6,2.5c-5.9,1.2-11.7,2.7-17.3,4.5
		c-5.6,1.8-11.1,3.9-16.5,6.3c-5.3,2.4-10.5,5.1-15.6,8c-5,3-9.9,6.2-14.5,9.6c-4.6,3.5-9.1,7.2-13.3,11.1s-8.3,8.1-12,12.5
		s-7.3,9-10.6,13.8c-2.2,3.1-4.2,6.4-6.1,9.6l-5.9,11.1c0,0-37.3,98.5-85.5,98.5H504c-24.8,0-43.2-24.3-55.1-43.2
		C435,415.3,427.3,390,413.1,368c-13.5-20.9-31.8-39.1-53.1-52c-24.1-14.6-51.8-22.4-80-22.4c-6.5,0-13,0.4-19.4,1.2
		c-0.4,0-0.8,0.1-1.1,0.1l81.4,141.5l115.5,157.9l82.5-18.4L737.4,293.1L737.4,293.1z"/>
	
		<linearGradient id="SVGID_2_" gradientUnits="userSpaceOnUse" x1="340.94" y1="500.095" x2="738.89" y2="500.095" gradientTransform="matrix(1 0 0 -1 0 1000)">
		<stop  offset="0" style="stop-color:#B22A3B"/>
		<stop  offset="4.000000e-02" style="stop-color:#AF2737"/>
		<stop  offset="7.000000e-02" style="stop-color:#A6202D"/>
		<stop  offset="0.11" style="stop-color:#97131B"/>
		<stop  offset="0.14" style="stop-color:#820102"/>
		<stop  offset="0.14" style="stop-color:#800000"/>
		<stop  offset="0.24" style="stop-color:#830303"/>
		<stop  offset="0.35" style="stop-color:#8C0F0D"/>
		<stop  offset="0.44" style="stop-color:#9B221D"/>
		<stop  offset="0.54" style="stop-color:#B13C35"/>
		<stop  offset="0.63" style="stop-color:#CC5E52"/>
		<stop  offset="0.68" style="stop-color:#CF6654"/>
		<stop  offset="0.76" style="stop-color:#D77D5C"/>
		<stop  offset="0.86" style="stop-color:#E6A269"/>
		<stop  offset="0.97" style="stop-color:#F9D57A"/>
		<stop  offset="1" style="stop-color:#FFE37F"/>
	</linearGradient>
	<path class="st3" d="M605.6,521.5l133.3-228.5h-3.1c-80.8,6.4-139.5,73.3-146.3,155c-1.6,19.3-9.5,39-20.6,54.9
		c-10.4,14.9-24.6,26.7-41.5,33.4c-32.3,12.8-66.2,4.3-94.8-13.5c-17.9-11.1-34-25.2-49.2-39.6c-15.3-14.5-30.4-29.4-42.4-46.8
		l64.6,111.5l92,159h0l99.9-171.3L605.6,521.5"/>
</g>
</svg>
