<?xml version="1.0" encoding="utf-8"?>
<!-- Generator: Adobe Illustrator 24.0.0, SVG Export Plug-In . SVG Version: 6.00 Build 0)  -->
<svg version="1.1" id="Layer_1" xmlns="http://www.w3.org/2000/svg" xmlns:xlink="http://www.w3.org/1999/xlink" x="0px" y="0px"
	 viewBox="0 0 1000 1000" style="enable-background:new 0 0 1000 1000;" xml:space="preserve">
<style type="text/css">
	.st0{fill:#0F0F0E;}
	.st1{fill:url(#SVGID_1_);}
	.st2{opacity:0.3;}
	.st3{fill:url(#SVGID_2_);}
	.st4{fill:url(#SVGID_3_);}
	.st5{opacity:0.5;fill:url(#SVGID_4_);enable-background:new    ;}
	.st6{opacity:0.3;fill:url(#SVGID_5_);enable-background:new    ;}
	.st7{opacity:0.5;fill:url(#SVGID_6_);enable-background:new    ;}
	.st8{opacity:0.5;fill:url(#SVGID_7_);enable-background:new    ;}
	.st9{opacity:0.5;fill:url(#SVGID_8_);enable-background:new    ;}
	.st10{opacity:0.5;fill:url(#SVGID_9_);enable-background:new    ;}
</style>
<rect class="st0" width="1000" height="1000"/>
<g>
	
		<linearGradient id="SVGID_1_" gradientUnits="userSpaceOnUse" x1="615.6523" y1="348.7302" x2="592.9123" y2="650.3702" gradientTransform="matrix(1 0 0 -1 0 1000)">
		<stop  offset="0" style="stop-color:#009FE2"/>
		<stop  offset="4.000000e-02" style="stop-color:#0092D8"/>
		<stop  offset="0.12" style="stop-color:#0080C8"/>
		<stop  offset="0.19" style="stop-color:#0074BF"/>
		<stop  offset="0.28" style="stop-color:#0071BC"/>
		<stop  offset="0.67" style="stop-color:#00A715"/>
		<stop  offset="0.89" style="stop-color:#D8E000"/>
	</linearGradient>
	<path class="st1" d="M702.5,499.3l-41.6-72l-0.4,0.3c-7.4-10.9-17.2-20.5-29.1-27.9C608,385,580.9,381.5,556,387.7
		c-23.9,5.9-45.6,20.8-59.6,43.3c-1.6,2.5-3.8,4.4-5.1,7.1c-0.1,0.3-0.9,1-1.1,1.3c-1.6,2-2.6,3.9-4,6c0.8-0.7,2.3-1.4,3.2-1.9
		c1.6-0.8,3.2-1.8,4.9-2.5c13.2-5.9,30-1.4,38.2,12.7l49.3,85.4l12.3,21.3c0.3,0.5,0.6,1.1,0.9,1.7c1.8,2.6,3.5,5.3,5,8.2
		c1.3,2.4,2.3,4.9,3.3,7.4c0,0.1,0.1,0.1,0.1,0.2c1.8,2.7,3.4,5.5,4.9,8.4c11.9,22.9,13.8,48.3,7.4,71.3
		c-7,25.3-24.2,47.7-49.3,60.8c-12.8,6.6-26.3,10.1-39.8,10.8v0.6h42.9C687.8,729.7,761.7,601.7,702.5,499.3L702.5,499.3z"/>
	<g class="st2">
		<path d="M603.4,577.8c0-0.1-0.1-0.1-0.1-0.2C603.4,577.7,603.4,577.8,603.4,577.8C603.4,577.9,603.4,577.9,603.4,577.8z"/>
	</g>
	
		<linearGradient id="SVGID_2_" gradientUnits="userSpaceOnUse" x1="289.8389" y1="406.54" x2="619.3193" y2="406.54" gradientTransform="matrix(1 0 0 -1 0 1000)">
		<stop  offset="0" style="stop-color:#DA007C"/>
		<stop  offset="4.000000e-02" style="stop-color:#B10082"/>
		<stop  offset="9.000000e-02" style="stop-color:#8F0087"/>
		<stop  offset="0.13" style="stop-color:#75008B"/>
		<stop  offset="0.18" style="stop-color:#62008E"/>
		<stop  offset="0.23" style="stop-color:#560090"/>
		<stop  offset="0.28" style="stop-color:#530091"/>
		<stop  offset="0.67" style="stop-color:#0071BC"/>
		<stop  offset="0.89" style="stop-color:#000492"/>
	</linearGradient>
	<path class="st3" d="M600,570.3c-1.5-2.9-3.2-5.6-5-8.2c1.3,2.6,2.2,5.2,2.7,7.8c0.6,3.1,0.6,6.2,0.3,9.2
		c-1.8,14.1-13.7,26.3-29.7,26.3H445c-3.5,0-6.7-0.6-9.7-1.6c-0.7-0.2-1.3-0.5-1.9-0.7c-0.9,0.1-1.9,0.2-2.8,0.3
		c-1.1,0.1-2.1,0.2-3.2,0.3c-2.2,0.2-4.5,0.2-6.7,0.2c-27.7,0-52.7-11.5-70.5-29.9c-17-17.6-27.5-41.6-27.5-68.1
		c0-17.6,4.6-34.1,12.8-48.4l-0.4-0.2l-24.3,42.1c-59.1,102.4,14.8,230.4,133,230.4h82.9v-0.6c13.5-0.7,27-4.3,39.8-10.8
		c25.2-13,42.3-35.5,49.3-60.8c6.4-23,4.5-48.4-7.4-71.3L600,570.3L600,570.3z"/>
	
		<linearGradient id="SVGID_3_" gradientUnits="userSpaceOnUse" x1="604.6188" y1="682.4312" x2="364.2607" y2="442.073" gradientTransform="matrix(1 0 0 -1 0 1000)">
		<stop  offset="0" style="stop-color:#FFE700"/>
		<stop  offset="2.000000e-02" style="stop-color:#F9E600"/>
		<stop  offset="0.1" style="stop-color:#E7E200"/>
		<stop  offset="0.19" style="stop-color:#DBE000"/>
		<stop  offset="0.28" style="stop-color:#D8E000"/>
		<stop  offset="0.67" style="stop-color:#F13F00"/>
		<stop  offset="0.89" style="stop-color:#FF0047"/>
	</linearGradient>
	<path class="st4" d="M496.4,430.9c14-22.5,35.7-37.4,59.6-43.3c24.8-6.1,52-2.6,75.4,11.9c11.9,7.4,21.7,17,29.1,27.9l0.4-0.3
		l-21.3-36.9c-59.1-102.4-207-102.4-266.1,0L335,457.1l0.4,0.2c-8.1,14.3-12.8,30.8-12.8,48.4c0,26.4,10.5,50.4,27.5,68.1
		c17.8,18.5,42.8,29.9,70.5,29.9c2.3,0,4.5-0.1,6.7-0.2c1.1-0.1,2.1-0.2,3.2-0.3c0.9-0.1,1.9-0.2,2.8-0.3c-1.8-0.7-3.4-1.7-5-2.7
		c-12.3-8.3-17.6-25.4-9.3-39.9l49.5-85.7l12.1-21L496.4,430.9L496.4,430.9z"/>
	
		<linearGradient id="SVGID_4_" gradientUnits="userSpaceOnUse" x1="604.6188" y1="682.4312" x2="364.2607" y2="442.073" gradientTransform="matrix(1 0 0 -1 0 1000)">
		<stop  offset="0" style="stop-color:#FFFFFF;stop-opacity:0"/>
		<stop  offset="1" style="stop-color:#000000"/>
	</linearGradient>
	<path class="st5" d="M496.4,430.9c14-22.5,35.7-37.4,59.6-43.3c24.8-6.1,52-2.6,75.4,11.9c11.9,7.4,21.7,17,29.1,27.9l0.4-0.3
		l-21.3-36.9c-59.1-102.4-207-102.4-266.1,0L335,457.1l0.4,0.2c-8.1,14.3-12.8,30.8-12.8,48.4c0,26.4,10.5,50.4,27.5,68.1
		c17.8,18.5,42.8,29.9,70.5,29.9c2.3,0,4.5-0.1,6.7-0.2c1.1-0.1,2.1-0.2,3.2-0.3c0.9-0.1,1.9-0.2,2.8-0.3c-1.8-0.7-3.4-1.7-5-2.7
		c-12.3-8.3-17.6-25.4-9.3-39.9l49.5-85.7l12.1-21L496.4,430.9L496.4,430.9z"/>
	
		<linearGradient id="SVGID_5_" gradientUnits="userSpaceOnUse" x1="545.6231" y1="606.7869" x2="417.5631" y2="478.7269" gradientTransform="matrix(1 0 0 -1 0 1000)">
		<stop  offset="0" style="stop-color:#FFFFFF;stop-opacity:0"/>
		<stop  offset="1" style="stop-color:#000000"/>
	</linearGradient>
	<path class="st6" d="M434.5,408.7c-2.4,3.1-4.6,6.4-6.6,9.9L382,498l-4.4,7.6c-4.5,9.1-7,19.3-7,30.1c0,33.8,24.6,61.8,56.9,67.1
		c0,0,2.7,0,5.5-0.2c0,0-3.3-1.5-4.7-2.4c-12.3-8.3-17.6-25.4-9.3-39.9c3.2-5.6,6.4-11.2,9.7-16.7c6.7-11.5,13.3-23.1,20-34.6
		c7.5-13,15-25.9,22.3-38.9c1.7-3,3.4-6,5.2-8.9c3.5-5.6,6.9-11.1,10.6-16.5c3.7-5.4,7.5-10.7,11.5-16.3
		c10.5-14.9,23.8-27,40.4-34.6c4.9-2.3,10-4.1,15.2-5.5c0.2,0,0.3-0.1,0.5-0.1c0.5-0.1,1.1-0.3,1.6-0.4
		C517.8,362.8,464,369.9,434.5,408.7L434.5,408.7z"/>
	
		<linearGradient id="SVGID_6_" gradientUnits="userSpaceOnUse" x1="630.3839" y1="395.3921" x2="539.4339" y2="566.6721" gradientTransform="matrix(1 0 0 -1 0 1000)">
		<stop  offset="0" style="stop-color:#FFFFFF;stop-opacity:0"/>
		<stop  offset="1" style="stop-color:#000000"/>
	</linearGradient>
	<path class="st7" d="M656.6,543.5c-1.6-3.8-3.4-7.7-5.6-11.4l-42.5-73.6l-11.4-19.7c-4.5-5.5-10-10.3-16.4-14.3
		c-29.3-18.2-67.2-13.3-88.5,12.6c-0.2,0.3-1.4,2-1.6,2.2c-0.7,1.4-3.4,4.5-4,5.9c1.5-1,6.3-3.5,7.9-4.2c13.2-5.9,30-1.5,38.2,12.6
		L582,539l12.3,21.3c0.3,0.5,0.6,1.1,0.9,1.7c1.8,2.6,3.5,5.3,5,8.2c1.3,2.4,2.3,4.9,3.3,7.4c0,0.1,0.1,0.1,0.1,0.2
		c1.8,2.7,3.4,5.5,4.9,8.4c11.9,22.9,13.8,48.3,7.4,71.3C654.8,636.2,674.6,587.5,656.6,543.5L656.6,543.5z"/>
	
		<linearGradient id="SVGID_7_" gradientUnits="userSpaceOnUse" x1="350.0854" y1="385.0949" x2="607.7203" y2="385.0949" gradientTransform="matrix(1 0 0 -1 0 1000)">
		<stop  offset="0" style="stop-color:#FFFFFF;stop-opacity:0"/>
		<stop  offset="5.000000e-02" style="stop-color:#E3E3E3;stop-opacity:0.11"/>
		<stop  offset="1" style="stop-color:#000000"/>
	</linearGradient>
	<path class="st8" d="M603.5,577.5c0-0.1,0-0.1-0.1-0.2c-0.9-2.5-2-5-3.3-7.4c-1.5-2.9-3.2-5.6-5-8.2c1.3,2.6,2.2,5.2,2.7,7.8
		c0.6,3.1,0.6,6.2,0.3,9.2c-1.8,14.1-13.7,26.3-29.7,26.3H445.1c-3.5,0-6.7-0.6-9.7-1.6c-1.6-0.1-3.2-0.2-4.8-0.4
		c-1.1,0.1-2.1,0.2-3.2,0.3c-2.2,0.2-4.5,0.2-6.7,0.2c-27.7,0-52.7-11.5-70.5-29.9c-1.9,45.6,31.6,88.5,80.3,94.1
		c3.5,0.4,7,0.6,10.7,0.6h110.1c6.7-1.2,13.3-3.3,19.7-6.6C601.9,645.5,615.3,609.2,603.5,577.5L603.5,577.5z"/>
	
		<linearGradient id="SVGID_8_" gradientUnits="userSpaceOnUse" x1="615.6523" y1="348.7302" x2="592.9123" y2="650.3702" gradientTransform="matrix(1 0 0 -1 0 1000)">
		<stop  offset="0" style="stop-color:#FFFFFF;stop-opacity:0"/>
		<stop  offset="1" style="stop-color:#000000"/>
	</linearGradient>
	<path class="st9" d="M702.5,499.3l-41.6-72l-0.4,0.3c-7.4-10.9-17.2-20.5-29.1-27.9C608,385,580.9,381.5,556,387.7
		c-23.9,5.9-45.6,20.8-59.6,43.3c-1.6,2.5-3.8,4.4-5.1,7.1c-0.1,0.3-0.9,1-1.1,1.3c-1.6,2-2.6,3.9-4,6c0.8-0.7,2.3-1.4,3.2-1.9
		c1.6-0.8,3.2-1.8,4.9-2.5c13.2-5.9,30-1.4,38.2,12.7l49.3,85.4l12.3,21.3c0.3,0.5,0.6,1.1,0.9,1.7c1.8,2.6,3.5,5.3,5,8.2
		c1.3,2.4,2.3,4.9,3.3,7.4c0,0.1,0.1,0.1,0.1,0.2c1.8,2.7,3.4,5.5,4.9,8.4c11.9,22.9,13.8,48.3,7.4,71.3
		c-7,25.3-24.2,47.7-49.3,60.8c-12.8,6.6-26.3,10.1-39.8,10.8v0.6h42.9C687.8,729.7,761.7,601.7,702.5,499.3L702.5,499.3z"/>
	
		<linearGradient id="SVGID_9_" gradientUnits="userSpaceOnUse" x1="289.8389" y1="406.54" x2="619.3193" y2="406.54" gradientTransform="matrix(1 0 0 -1 0 1000)">
		<stop  offset="0" style="stop-color:#FFFFFF;stop-opacity:0"/>
		<stop  offset="1" style="stop-color:#000000"/>
	</linearGradient>
	<path class="st10" d="M600,570.3c-1.5-2.9-3.2-5.6-5-8.2c1.3,2.6,2.2,5.2,2.7,7.8c0.6,3.1,0.6,6.2,0.3,9.2
		c-1.8,14.1-13.7,26.3-29.7,26.3H445c-3.5,0-6.7-0.6-9.7-1.6c-0.7-0.2-1.3-0.5-1.9-0.7c-0.9,0.1-1.9,0.2-2.8,0.3
		c-1.1,0.1-2.1,0.2-3.2,0.3c-2.2,0.2-4.5,0.2-6.7,0.2c-27.7,0-52.7-11.5-70.5-29.9c-17-17.6-27.5-41.6-27.5-68.1
		c0-17.6,4.6-34.1,12.8-48.4l-0.4-0.2l-24.3,42.1c-59.1,102.4,14.8,230.4,133,230.4h82.9v-0.6c13.5-0.7,27-4.3,39.8-10.8
		c25.2-13,42.3-35.5,49.3-60.8c6.4-23,4.5-48.4-7.4-71.3L600,570.3L600,570.3z"/>
</g>
</svg>
