<?xml version="1.0" encoding="utf-8"?>
<!-- Generator: Adobe Illustrator 24.0.0, SVG Export Plug-In . SVG Version: 6.00 Build 0)  -->
<svg version="1.1" id="Layer_1" xmlns="http://www.w3.org/2000/svg" xmlns:xlink="http://www.w3.org/1999/xlink" x="0px" y="0px"
	 viewBox="0 0 1000 1000" style="enable-background:new 0 0 1000 1000;" xml:space="preserve">
<style type="text/css">
	.st0{clip-path:url(#SVGID_2_);}
	.st1{fill:url(#SVGID_3_);}
	.st2{fill:url(#SVGID_4_);}
	.st3{fill:url(#SVGID_5_);}
	.st4{fill:url(#SVGID_6_);}
	.st5{fill:url(#SVGID_7_);}
	.st6{fill:url(#SVGID_8_);}
	.st7{fill:url(#SVGID_9_);}
</style>
<g>
	<defs>
		<rect id="SVGID_1_" width="1000" height="1000"/>
	</defs>
	<clipPath id="SVGID_2_">
		<use xlink:href="#SVGID_1_"  style="overflow:visible;"/>
	</clipPath>
	<g class="st0">
		
			<image style="overflow:visible;enable-background:new    ;" width="1902" height="1189" xlink:href="159E0CEA.png"  transform="matrix(1 0 0 1 -264 -101)">
		</image>
	</g>
</g>
<g>
	
		<linearGradient id="SVGID_3_" gradientUnits="userSpaceOnUse" x1="401.12" y1="359.97" x2="439.05" y2="359.97" gradientTransform="matrix(1 0 0 -1 0 1000)">
		<stop  offset="0" style="stop-color:#FFFFFF"/>
		<stop  offset="1" style="stop-color:#FFFFFF"/>
	</linearGradient>
	<polygon class="st1" points="401.1,599.7 401.1,680.3 439,680.3 439,630.5 	"/>
	
		<linearGradient id="SVGID_4_" gradientUnits="userSpaceOnUse" x1="321.21" y1="392.38" x2="359.14" y2="392.38" gradientTransform="matrix(1 0 0 -1 0 1000)">
		<stop  offset="0" style="stop-color:#FFFFFF"/>
		<stop  offset="1" style="stop-color:#FFFFFF"/>
	</linearGradient>
	<polygon class="st2" points="321.2,534.9 321.2,680.3 359.1,680.3 359.1,565.7 	"/>
	
		<linearGradient id="SVGID_5_" gradientUnits="userSpaceOnUse" x1="640.86" y1="610.35" x2="678.79" y2="610.35" gradientTransform="matrix(1 0 0 -1 0 1000)">
		<stop  offset="0" style="stop-color:#FFFFFF"/>
		<stop  offset="1" style="stop-color:#FFFFFF"/>
	</linearGradient>
	<polygon class="st3" points="640.9,428.9 678.8,459.6 678.8,319.7 640.9,319.7 	"/>
	
		<linearGradient id="SVGID_6_" gradientUnits="userSpaceOnUse" x1="560.95" y1="642.755" x2="598.88" y2="642.755" gradientTransform="matrix(1 0 0 -1 0 1000)">
		<stop  offset="0" style="stop-color:#FFFFFF"/>
		<stop  offset="1" style="stop-color:#FFFFFF"/>
	</linearGradient>
	<polygon class="st4" points="598.9,394.8 598.9,319.7 561,319.7 561,364.1 	"/>
	
		<linearGradient id="SVGID_7_" gradientUnits="userSpaceOnUse" x1="321.21" y1="500" x2="518.97" y2="500" gradientTransform="matrix(1 0 0 -1 0 1000)">
		<stop  offset="0" style="stop-color:#FFFFFF"/>
		<stop  offset="1" style="stop-color:#FFFFFF"/>
	</linearGradient>
	<polygon class="st5" points="481,560.9 479,559.3 441.1,528.5 439,526.9 401.1,496.1 399.1,494.5 361.2,463.7 359.1,462 
		359.1,459.4 359.1,410.2 359.1,407.6 359.1,358.4 359.1,355.8 359.1,319.7 321.2,319.7 321.2,325 321.2,327.7 321.2,376.9 
		321.2,379.5 321.2,428.7 321.2,431.3 321.2,480.5 359.1,511.3 361.2,512.9 399.1,543.7 401.1,545.3 439,576.1 441.1,577.7 
		479,608.5 481,610.1 481,612.7 481,661.9 481,664.5 481,680.3 500.5,680.3 503.7,680.3 519,680.3 519,643.5 519,640.9 519,591.7 	
		"/>
	
		<linearGradient id="SVGID_8_" gradientUnits="userSpaceOnUse" x1="401.12" y1="500" x2="598.88" y2="500" gradientTransform="matrix(1 0 0 -1 0 1000)">
		<stop  offset="0" style="stop-color:#FFFFFF"/>
		<stop  offset="1" style="stop-color:#FFFFFF"/>
	</linearGradient>
	<polygon class="st6" points="561,522.1 558.9,520.5 521,489.7 519,488 481,457.3 479,455.6 441.1,424.9 439,423.2 439,420.6 
		439,371.4 439,368.8 439,319.7 401.1,319.7 401.1,338.1 401.1,340.7 401.1,389.9 401.1,392.5 401.1,441.7 439,472.4 441.1,474.1 
		479,504.9 481,506.5 519,537.3 521,538.9 558.9,569.7 561,571.3 561,573.9 561,623.1 561,625.7 561,674.9 561,677.5 561,680.3 
		564.4,680.3 567.6,680.3 598.9,680.3 598.9,656.5 598.9,653.9 598.9,604.7 598.9,602.1 598.9,552.9 	"/>
	
		<linearGradient id="SVGID_9_" gradientUnits="userSpaceOnUse" x1="481.04" y1="500" x2="678.79" y2="500" gradientTransform="matrix(1 0 0 -1 0 1000)">
		<stop  offset="0" style="stop-color:#FFFFFF"/>
		<stop  offset="1" style="stop-color:#FFFFFF"/>
	</linearGradient>
	<polygon class="st7" points="640.9,483.3 638.8,481.6 600.9,450.9 598.9,449.2 561,418.5 558.9,416.8 521,386.1 519,384.4 
		519,381.8 519,332.6 519,330 519,319.7 506.2,319.7 503,319.7 481,319.7 481,351.1 481,353.7 481,402.9 519,433.6 521,435.3 
		558.9,466 561,467.7 598.9,498.4 600.9,500.1 638.8,530.8 640.9,532.5 640.9,535.1 640.9,584.3 640.9,586.9 640.9,636.1 
		640.9,638.7 640.9,680.3 678.8,680.3 678.8,669.5 678.8,666.9 678.8,617.7 678.8,615.1 678.8,565.9 678.8,563.3 678.8,514.1 	"/>
</g>
</svg>
