<?xml version="1.0" encoding="utf-8"?>
<!-- Generator: Adobe Illustrator 24.0.0, SVG Export Plug-In . SVG Version: 6.00 Build 0)  -->
<svg version="1.1" id="Layer_1" xmlns="http://www.w3.org/2000/svg" xmlns:xlink="http://www.w3.org/1999/xlink" x="0px" y="0px"
	 viewBox="0 0 1000 1000" style="enable-background:new 0 0 1000 1000;" xml:space="preserve">
<style type="text/css">
	.st0{opacity:0.5;}
	.st1{clip-path:url(#SVGID_2_);}
	.st2{fill:none;}
	.st3{fill:url(#SVGID_3_);}
	.st4{fill:url(#SVGID_4_);}
	.st5{fill:url(#SVGID_5_);}
	.st6{fill:url(#SVGID_6_);}
	.st7{fill:url(#SVGID_7_);}
	.st8{fill:url(#SVGID_8_);}
	.st9{fill:url(#SVGID_9_);}
	.st10{fill:url(#SVGID_10_);}
	.st11{fill:url(#SVGID_11_);}
	.st12{fill:url(#SVGID_12_);}
	.st13{fill:url(#SVGID_13_);}
	.st14{fill:url(#SVGID_14_);}
	.st15{fill:url(#SVGID_15_);}
	.st16{fill:url(#SVGID_16_);}
	.st17{fill:url(#SVGID_17_);}
	.st18{fill:url(#SVGID_18_);}
	.st19{fill:url(#SVGID_19_);}
	.st20{fill:url(#SVGID_20_);}
	.st21{fill:url(#SVGID_21_);}
</style>
<g class="st0">
	<g>
		<defs>
			<rect id="SVGID_1_" width="1000" height="1000"/>
		</defs>
		<clipPath id="SVGID_2_">
			<use xlink:href="#SVGID_1_"  style="overflow:visible;"/>
		</clipPath>
		<g class="st1">
			
				<image style="overflow:visible;enable-background:new    ;" width="2013" height="1134" xlink:href="B7E5B259.png"  transform="matrix(1 0 0 1 -509 -54)">
			</image>
		</g>
	</g>
</g>
<g>
	<path class="st2" d="M557,458.1c-10.7-8.6-22-18.9-33.8-31.2C523.2,426.9,536.4,441.7,557,458.1z"/>
	<path class="st2" d="M642,499.4c-8.2-1.2-17.7-3.5-28.3-7.5C622.9,495.4,632.4,498.1,642,499.4z"/>
	<g>
		
			<linearGradient id="SVGID_3_" gradientUnits="userSpaceOnUse" x1="452.5756" y1="238.7667" x2="269.1056" y2="483.0067" gradientTransform="matrix(1 0 0 -1 0 1000)">
			<stop  offset="0" style="stop-color:#E32DF4"/>
			<stop  offset="0.23" style="stop-color:#7FCBFF"/>
			<stop  offset="0.3" style="stop-color:#7EC1FF"/>
			<stop  offset="0.42" style="stop-color:#7CA8FF"/>
			<stop  offset="0.58" style="stop-color:#787EFF"/>
			<stop  offset="0.77" style="stop-color:#7444FF"/>
			<stop  offset="0.97" style="stop-color:#6F00FF"/>
		</linearGradient>
		<path class="st3" d="M264.7,517.6l-1.7,10.8c0,0-0.6,166.6,103.1,159.4c-8.6-20.7-26.1-65.2-35.4-103.4
			c-8.3-34-11.5-75.2-12.7-103.2c-0.1,0-0.1,0-0.2,0C280.1,482.8,268.4,504.1,264.7,517.6z"/>
		
			<linearGradient id="SVGID_4_" gradientUnits="userSpaceOnUse" x1="505.2866" y1="278.3674" x2="321.8166" y2="522.6074" gradientTransform="matrix(1 0 0 -1 0 1000)">
			<stop  offset="0" style="stop-color:#E32DF4"/>
			<stop  offset="0.23" style="stop-color:#7FCBFF"/>
			<stop  offset="0.3" style="stop-color:#7EC1FF"/>
			<stop  offset="0.42" style="stop-color:#7CA8FF"/>
			<stop  offset="0.58" style="stop-color:#787EFF"/>
			<stop  offset="0.77" style="stop-color:#7444FF"/>
			<stop  offset="0.97" style="stop-color:#6F00FF"/>
		</linearGradient>
		<path class="st4" d="M362.8,490c0.7,37.4,6.2,81.8,18.6,124.1c8.2,28.1,18.3,48.6,24.7,60.2c10.3-6.6,20.1-16.2,25-30.4
			c13-37.6-7.5-99.5-3.2-109.9l0,0c-0.8-0.6-1.6-1.2-2.4-1.8C425.4,532,398.5,504.5,362.8,490L362.8,490z"/>
	</g>
	<g>
		
			<linearGradient id="SVGID_5_" gradientUnits="userSpaceOnUse" x1="734.9184" y1="127.6592" x2="629.7384" y2="356.7093" gradientTransform="matrix(1 0 0 -1 0 1000)">
			<stop  offset="0" style="stop-color:#9C15FF"/>
			<stop  offset="0.22" style="stop-color:#9D17FF"/>
			<stop  offset="0.36" style="stop-color:#A420FF"/>
			<stop  offset="0.48" style="stop-color:#AE2FFF"/>
			<stop  offset="0.59" style="stop-color:#BD44FF"/>
			<stop  offset="0.69" style="stop-color:#D05FFF"/>
			<stop  offset="0.72" style="stop-color:#D86AFF"/>
			<stop  offset="0.75" style="stop-color:#C45CF9"/>
			<stop  offset="0.83" style="stop-color:#8835E9"/>
			<stop  offset="0.91" style="stop-color:#5D18DD"/>
			<stop  offset="0.97" style="stop-color:#4206D6"/>
			<stop  offset="1" style="stop-color:#3900D4"/>
		</linearGradient>
		<path class="st5" d="M574.4,568.3c0,0-27.1,70.1,21.8,103.9c30.1-56.5,39-107.3,41.6-135.5C620.1,550.5,598.1,563.6,574.4,568.3
			L574.4,568.3z"/>
		
			<linearGradient id="SVGID_6_" gradientUnits="userSpaceOnUse" x1="820.8269" y1="167.1131" x2="715.6469" y2="396.1532" gradientTransform="matrix(1 0 0 -1 0 1000)">
			<stop  offset="0" style="stop-color:#9C15FF"/>
			<stop  offset="0.22" style="stop-color:#9D17FF"/>
			<stop  offset="0.36" style="stop-color:#A420FF"/>
			<stop  offset="0.48" style="stop-color:#AE2FFF"/>
			<stop  offset="0.59" style="stop-color:#BD44FF"/>
			<stop  offset="0.69" style="stop-color:#D05FFF"/>
			<stop  offset="0.72" style="stop-color:#D86AFF"/>
			<stop  offset="0.75" style="stop-color:#C45CF9"/>
			<stop  offset="0.83" style="stop-color:#8835E9"/>
			<stop  offset="0.91" style="stop-color:#5D18DD"/>
			<stop  offset="0.97" style="stop-color:#4206D6"/>
			<stop  offset="1" style="stop-color:#3900D4"/>
		</linearGradient>
		<path class="st6" d="M741.3,441.1c-1.6-24.5-10.3-60.4-10.3-60.4s8.7,57.5-46.2,110.4l0,0.2c-1.5,24.6-5.5,68.9-14.5,109.7
			c-8,36-24.9,70.3-33.9,86.9c29.9,3.2,50-13,50.8-13c1.2,0,29-17.1,44.3-79.1C746.8,533.8,742.9,465.6,741.3,441.1L741.3,441.1z"/>
	</g>
	
		<linearGradient id="SVGID_7_" gradientUnits="userSpaceOnUse" x1="838.0817" y1="175.0354" x2="732.9017" y2="404.0754" gradientTransform="matrix(1 0 0 -1 0 1000)">
		<stop  offset="0" style="stop-color:#7BB9E7"/>
		<stop  offset="8.000000e-02" style="stop-color:#71B4E3"/>
		<stop  offset="0.22" style="stop-color:#58A6DB"/>
		<stop  offset="0.4" style="stop-color:#2F90CD"/>
		<stop  offset="0.57" style="stop-color:#0078BE"/>
		<stop  offset="1" style="stop-color:#154F9E"/>
	</linearGradient>
	<path class="st7" d="M684.8,491.1c0,0,0,0.1,0,0.2V491.1C684.8,491.1,684.8,491.1,684.8,491.1L684.8,491.1z"/>
	
		<linearGradient id="SVGID_8_" gradientUnits="userSpaceOnUse" x1="604.8701" y1="510.125" x2="731.5301" y2="510.125" gradientTransform="matrix(1 0 0 -1 0 1000)">
		<stop  offset="0" style="stop-color:#7BB9E7"/>
		<stop  offset="8.000000e-02" style="stop-color:#71B4E3"/>
		<stop  offset="0.22" style="stop-color:#58A6DB"/>
		<stop  offset="0.4" style="stop-color:#2F90CD"/>
		<stop  offset="0.57" style="stop-color:#0078BE"/>
		<stop  offset="1" style="stop-color:#154F9E"/>
	</linearGradient>
	<path class="st8" d="M613.1,491.6c-2.8-1.1-5.5-2.2-8.2-3.5c0,0,0,0,0,0C607.7,489.4,610.4,490.6,613.1,491.6L613.1,491.6z"/>
	
		<linearGradient id="SVGID_9_" gradientUnits="userSpaceOnUse" x1="264.85" y1="510.125" x2="678.44" y2="510.125" gradientTransform="matrix(1 0 0 -1 0 1000)">
		<stop  offset="0" style="stop-color:#7BB9E7"/>
		<stop  offset="8.000000e-02" style="stop-color:#71B4E3"/>
		<stop  offset="0.22" style="stop-color:#58A6DB"/>
		<stop  offset="0.4" style="stop-color:#2F90CD"/>
		<stop  offset="0.57" style="stop-color:#0078BE"/>
		<stop  offset="1" style="stop-color:#154F9E"/>
	</linearGradient>
	<path class="st9" d="M613.1,491.6c-2.8-1.1-5.5-2.2-8.2-3.5c0,0,0,0,0,0C607.7,489.4,610.4,490.6,613.1,491.6L613.1,491.6z"/>
	
		<linearGradient id="SVGID_10_" gradientUnits="userSpaceOnUse" x1="604.87" y1="501.3129" x2="731.53" y2="501.3129" gradientTransform="matrix(1 0 0 -1 0 1000)">
		<stop  offset="0" style="stop-color:#7BB9E7"/>
		<stop  offset="8.000000e-02" style="stop-color:#71B4E3"/>
		<stop  offset="0.22" style="stop-color:#58A6DB"/>
		<stop  offset="0.4" style="stop-color:#2F90CD"/>
		<stop  offset="0.57" style="stop-color:#0078BE"/>
		<stop  offset="1" style="stop-color:#154F9E"/>
	</linearGradient>
	<path class="st10" d="M651,500.2C651,500.2,651,500.2,651,500.2c17.6,1,27.5-3.2,27.5-3.2C669.4,499.6,660.2,500.6,651,500.2
		L651,500.2z"/>
	<g>
		
			<linearGradient id="SVGID_11_" gradientUnits="userSpaceOnUse" x1="749.1086" y1="703.8021" x2="486.1786" y2="536.6921" gradientTransform="matrix(1 0 0 -1 0 1000)">
			<stop  offset="0" style="stop-color:#7BB9E7"/>
			<stop  offset="6.000000e-02" style="stop-color:#7AAFE4"/>
			<stop  offset="0.16" style="stop-color:#7996DF"/>
			<stop  offset="0.29" style="stop-color:#776CD6"/>
			<stop  offset="0.44" style="stop-color:#7533CA"/>
			<stop  offset="0.57" style="stop-color:#7300BF"/>
			<stop  offset="1" style="stop-color:#0300BF"/>
		</linearGradient>
		<path class="st11" d="M557,458.1c3.5,2.8,7.2,5.5,11,8.3c23.5-17.9,43-47.1,54.1-65.8c17.4-29.5,18.6-64.2,17.7-82.7
			c-20.8,1.4-56.2,25-73,58.8c-17.5,35.1-43.6,50.2-43.6,50.2C535,439.2,546.3,449.5,557,458.1L557,458.1z"/>
		
			<linearGradient id="SVGID_12_" gradientUnits="userSpaceOnUse" x1="392.13" y1="588.7509" x2="976.46" y2="588.7509" gradientTransform="matrix(1 0 0 -1 0 1000)">
			<stop  offset="0" style="stop-color:#7BB9E7"/>
			<stop  offset="6.000000e-02" style="stop-color:#7AAFE4"/>
			<stop  offset="0.16" style="stop-color:#7996DF"/>
			<stop  offset="0.29" style="stop-color:#776CD6"/>
			<stop  offset="0.44" style="stop-color:#7533CA"/>
			<stop  offset="0.57" style="stop-color:#7300BF"/>
			<stop  offset="1" style="stop-color:#0300BF"/>
		</linearGradient>
		<path class="st12" d="M731,380.7c-10.3-36.9-29.1-52.2-47.5-58.5c-0.6,23.2-5,66.5-25.7,101.4c-18.1,30.6-40.2,53-52.9,64.5
			c2.7,1.2,5.4,2.4,8.2,3.5c0,0,0,0,0,0c0.2,0.1,0.4,0.2,0.6,0.2c10.6,4,20,6.3,28.3,7.5c0.3,0,0.5,0.1,0.8,0.1
			c0.5,0.1,0.9,0.1,1.4,0.2c1,0.1,1.9,0.2,2.8,0.3c1.3,0.1,2.7,0.2,4,0.3c9.2,0.4,18.4-0.5,27.4-3.2c2.2-1.9,4.3-3.9,6.3-5.9
			c0,0,0,0,0,0C739.7,438.3,731,380.7,731,380.7L731,380.7z"/>
	</g>
	
		<linearGradient id="SVGID_13_" gradientUnits="userSpaceOnUse" x1="604.87" y1="500.215" x2="731.53" y2="500.215" gradientTransform="matrix(1 0 0 -1 0 1000)">
		<stop  offset="0" style="stop-color:#7BB9E7"/>
		<stop  offset="8.000000e-02" style="stop-color:#71B4E3"/>
		<stop  offset="0.22" style="stop-color:#58A6DB"/>
		<stop  offset="0.4" style="stop-color:#2F90CD"/>
		<stop  offset="0.57" style="stop-color:#0078BE"/>
		<stop  offset="1" style="stop-color:#154F9E"/>
	</linearGradient>
	<path class="st13" d="M647,499.9L647,499.9c-0.9-0.1-1.9-0.2-2.8-0.3C645.1,499.8,646.1,499.9,647,499.9L647,499.9z"/>
	
		<linearGradient id="SVGID_14_" gradientUnits="userSpaceOnUse" x1="264.85" y1="500.215" x2="678.44" y2="500.215" gradientTransform="matrix(1 0 0 -1 0 1000)">
		<stop  offset="0" style="stop-color:#7BB9E7"/>
		<stop  offset="8.000000e-02" style="stop-color:#71B4E3"/>
		<stop  offset="0.22" style="stop-color:#58A6DB"/>
		<stop  offset="0.4" style="stop-color:#2F90CD"/>
		<stop  offset="0.57" style="stop-color:#0078BE"/>
		<stop  offset="1" style="stop-color:#154F9E"/>
	</linearGradient>
	<path class="st14" d="M647,499.9L647,499.9c-0.9-0.1-1.9-0.2-2.8-0.3C645.1,499.8,646.1,499.9,647,499.9L647,499.9z"/>
	
		<linearGradient id="SVGID_15_" gradientUnits="userSpaceOnUse" x1="636.38" y1="499.91" x2="742.96" y2="499.91" gradientTransform="matrix(1 0 0 -1 0 1000)">
		<stop  offset="0" style="stop-color:#7BB9E7"/>
		<stop  offset="8.000000e-02" style="stop-color:#71B4E3"/>
		<stop  offset="0.22" style="stop-color:#58A6DB"/>
		<stop  offset="0.4" style="stop-color:#2F90CD"/>
		<stop  offset="0.57" style="stop-color:#0078BE"/>
		<stop  offset="1" style="stop-color:#154F9E"/>
	</linearGradient>
	<path class="st15" d="M650.9,500.3C650.9,500.3,651,500.2,650.9,500.3c-1.3-0.1-2.6-0.2-3.9-0.3l0,0L650.9,500.3L650.9,500.3z"/>
	
		<linearGradient id="SVGID_16_" gradientUnits="userSpaceOnUse" x1="604.87" y1="499.91" x2="731.53" y2="499.91" gradientTransform="matrix(1 0 0 -1 0 1000)">
		<stop  offset="0" style="stop-color:#7BB9E7"/>
		<stop  offset="8.000000e-02" style="stop-color:#71B4E3"/>
		<stop  offset="0.22" style="stop-color:#58A6DB"/>
		<stop  offset="0.4" style="stop-color:#2F90CD"/>
		<stop  offset="0.57" style="stop-color:#0078BE"/>
		<stop  offset="1" style="stop-color:#154F9E"/>
	</linearGradient>
	<path class="st16" d="M650.9,500.3C650.9,500.3,651,500.2,650.9,500.3c-1.3-0.1-2.6-0.2-3.9-0.3l0,0L650.9,500.3L650.9,500.3z"/>
	
		<linearGradient id="SVGID_17_" gradientUnits="userSpaceOnUse" x1="264.85" y1="499.91" x2="678.44" y2="499.91" gradientTransform="matrix(1 0 0 -1 0 1000)">
		<stop  offset="0" style="stop-color:#7BB9E7"/>
		<stop  offset="8.000000e-02" style="stop-color:#71B4E3"/>
		<stop  offset="0.22" style="stop-color:#58A6DB"/>
		<stop  offset="0.4" style="stop-color:#2F90CD"/>
		<stop  offset="0.57" style="stop-color:#0078BE"/>
		<stop  offset="1" style="stop-color:#154F9E"/>
	</linearGradient>
	<path class="st17" d="M650.9,500.3C650.9,500.3,651,500.2,650.9,500.3c-1.3-0.1-2.6-0.2-3.9-0.3l0,0L650.9,500.3L650.9,500.3z"/>
	
		<linearGradient id="SVGID_18_" gradientUnits="userSpaceOnUse" x1="523.19" y1="537.735" x2="640.08" y2="537.735" gradientTransform="matrix(1 0 0 -1 0 1000)">
		<stop  offset="0" style="stop-color:#7BB9E7"/>
		<stop  offset="8.000000e-02" style="stop-color:#71B4E3"/>
		<stop  offset="0.22" style="stop-color:#58A6DB"/>
		<stop  offset="0.4" style="stop-color:#2F90CD"/>
		<stop  offset="0.57" style="stop-color:#0078BE"/>
		<stop  offset="1" style="stop-color:#154F9E"/>
	</linearGradient>
	<path class="st18" d="M568,466.5C568,466.5,568,466.4,568,466.5c-3.8-2.8-7.5-5.6-11-8.4C560.8,461.1,564.4,463.9,568,466.5z"/>
	
		<linearGradient id="SVGID_19_" gradientUnits="userSpaceOnUse" x1="264.85" y1="537.735" x2="678.44" y2="537.735" gradientTransform="matrix(1 0 0 -1 0 1000)">
		<stop  offset="0" style="stop-color:#7BB9E7"/>
		<stop  offset="8.000000e-02" style="stop-color:#71B4E3"/>
		<stop  offset="0.22" style="stop-color:#58A6DB"/>
		<stop  offset="0.4" style="stop-color:#2F90CD"/>
		<stop  offset="0.57" style="stop-color:#0078BE"/>
		<stop  offset="1" style="stop-color:#154F9E"/>
	</linearGradient>
	<path class="st19" d="M568,466.5C568,466.5,568,466.4,568,466.5c-3.8-2.8-7.5-5.6-11-8.4C560.8,461.1,564.4,463.9,568,466.5z"/>
	<g>
		
			<linearGradient id="SVGID_20_" gradientUnits="userSpaceOnUse" x1="264.7899" y1="580.2988" x2="678.45" y2="580.2988" gradientTransform="matrix(1 0 0 -1 0 1000)">
			<stop  offset="0" style="stop-color:#7FCBFF"/>
			<stop  offset="6.000000e-02" style="stop-color:#7EC1FF"/>
			<stop  offset="0.15" style="stop-color:#7CA8FF"/>
			<stop  offset="0.27" style="stop-color:#787EFF"/>
			<stop  offset="0.42" style="stop-color:#7444FF"/>
			<stop  offset="0.57" style="stop-color:#6F00FF"/>
			<stop  offset="1" style="stop-color:#FF00F1"/>
		</linearGradient>
		<path class="st20" d="M650.9,500.3l-4-0.3c-0.9-0.1-1.9-0.2-2.8-0.3c-0.5-0.1-0.9-0.1-1.4-0.2c-0.3,0-0.5-0.1-0.8-0.1
			c-9.6-1.3-19.1-4-28.3-7.5c-0.2-0.1-0.4-0.2-0.7-0.3c-2.7-1-5.4-2.2-8.2-3.4c0,0,0,0,0,0c-13.3-6.1-25.8-13.8-36.9-21.7
			c0,0,0,0-0.1,0c-3.6-2.6-7.2-5.4-11-8.4c-20.6-16.3-33.8-31.2-33.8-31.2c-13.2-14.8-27.1-28.6-41.8-42
			c-12.3-11.2-24.6-22.5-37.8-32.6C424.8,338,404,325.9,381,320.6c-23-5.3-48.3-3.2-68.3,9.3c-14.5,9.1-25.6,23.1-33.1,38.5
			c-7.5,15.4-11.8,32.2-14.9,49c0.4-1.9,3.7-4.9,4.9-6.4c1.9-2.3,3.9-4.5,6-6.6c4.1-4.2,8.6-8.1,13.4-11.6
			c9.9-7.3,21-13.3,33.4-14.8c28.7-3.4,58.6,2.8,83.4,17.8c9.6,5.8,18.4,12.7,27.1,19.8c14.8,11.9,29.2,24.2,43.9,36.2
			c9.9,8.2,19.8,16.4,29.6,24.7c4.2,3.6,8.4,7.1,12.5,10.8c27.5,24.1,97,58.2,159.5,9.8C678.4,497,668.6,501.2,650.9,500.3
			L650.9,500.3z"/>
		
			<linearGradient id="SVGID_21_" gradientUnits="userSpaceOnUse" x1="-613.86" y1="503.7362" x2="2025.2499" y2="503.7362" gradientTransform="matrix(1 0 0 -1 0 1000)">
			<stop  offset="0" style="stop-color:#7FCBFF"/>
			<stop  offset="6.000000e-02" style="stop-color:#7EC1FF"/>
			<stop  offset="0.15" style="stop-color:#7CA8FF"/>
			<stop  offset="0.27" style="stop-color:#787EFF"/>
			<stop  offset="0.42" style="stop-color:#7444FF"/>
			<stop  offset="0.57" style="stop-color:#6F00FF"/>
			<stop  offset="1" style="stop-color:#FF00F1"/>
		</linearGradient>
		<path class="st21" d="M577.3,547.8c-63.7-5.3-99.5-39-99.5-39s-72.9-66.2-109.1-79.1c-36.2-12.9-53.2-11.1-77.1,4.1
			c-9.6,6.1-20,18.1-28.6,33.9v60.7c0-0.8,0.1-5.1,1.7-10.8c3.7-13.5,15.5-34.8,53.2-36.4c0.1,0,0.1,0,0.2,0
			c15.5-0.6,30.8,3.1,44.7,8.8c35.8,14.6,62.6,42.1,62.6,42.1c0.8,0.6,1.6,1.2,2.4,1.8c33.7,25.4,91.2,45.2,146.6,34.4
			c23.7-4.6,45.7-17.8,63.3-31.6c6.6-5.2,12.6-10.4,17.8-15.4C638.3,535.7,611.6,550.7,577.3,547.8L577.3,547.8z"/>
	</g>
</g>
</svg>
